<?xml version="1.0" standalone="no"?>
<!DOCTYPE svg PUBLIC "-//W3C//DTD SVG 20010904//EN"
 "http://www.w3.org/TR/2001/REC-SVG-20010904/DTD/svg10.dtd">
<svg version="1.0" xmlns="http://www.w3.org/2000/svg"
 width="800.000000pt" height="800.000000pt" viewBox="0 0 800.000000 800.000000"
 preserveAspectRatio="xMidYMid meet">
<metadata>
Created by potrace 1.14, written by Peter Selinger 2001-2017
</metadata>
<g transform="translate(0.000000,800.000000) scale(0.100000,-0.100000)"
fill="#000000" stroke="none">
<path d="M1770 7270 l-35 -19 128 -1 c120 0 127 1 127 20 0 19 -7 20 -92 20
-72 -1 -101 -5 -128 -20z"/>
<path d="M2020 7235 c0 -10 11 -15 35 -15 24 0 35 -5 35 -15 0 -10 11 -15 35
-15 28 0 35 -4 35 -20 0 -11 7 -20 15 -20 8 0 15 -7 15 -15 0 -8 9 -15 20 -15
13 0 20 -7 20 -20 0 -11 7 -20 15 -20 8 0 15 -7 15 -15 0 -8 9 -15 20 -15 11
0 20 7 20 15 0 8 -9 15 -20 15 -13 0 -20 7 -20 20 0 11 -7 20 -15 20 -8 0 -15
7 -15 15 0 8 -9 15 -20 15 -13 0 -20 7 -20 20 0 11 -7 20 -15 20 -8 0 -15 7
-15 15 0 10 -11 15 -35 15 -24 0 -35 5 -35 15 0 10 -11 15 -35 15 -24 0 -35
-5 -35 -15z"/>
<path d="M1655 7230 c-19 -8 -19 -9 3 -9 12 -1 22 4 22 9 0 6 -1 10 -2 9 -2 0
-12 -4 -23 -9z"/>
<path d="M1710 7169 c0 -14 -7 -19 -30 -19 -20 0 -30 -5 -30 -15 0 -10 -11
-15 -35 -15 -28 0 -35 -4 -35 -20 0 -13 -7 -20 -20 -20 -11 0 -20 -7 -20 -15
0 -8 -7 -15 -15 -15 -8 0 -15 -9 -15 -20 0 -16 -7 -20 -34 -20 -30 0 -35 3
-38 28 l-3 27 -27 -40 c-46 -69 -78 -182 -78 -277 1 -101 12 -153 52 -238 37
-77 150 -195 216 -224 23 -10 42 -22 41 -25 0 -3 -52 -40 -115 -81 -120 -78
-230 -172 -325 -275 -40 -45 -60 -59 -77 -57 -19 3 -22 -1 -22 -32 l0 -36 -50
0 c-43 0 -50 3 -50 20 0 13 -7 20 -20 20 -16 0 -20 7 -20 35 0 24 -5 35 -15
35 -8 0 -15 7 -15 15 0 10 -11 15 -35 15 -24 0 -35 5 -35 15 0 10 -11 15 -35
15 -29 0 -35 4 -35 22 0 16 -3 19 -11 11 -9 -9 -23 -6 -55 10 -24 11 -46 19
-48 16 -17 -17 -163 -286 -160 -294 4 -10 47 -36 196 -117 53 -29 75 -36 101
-31 30 4 82 -17 125 -52 1 -1 -9 -27 -23 -59 -33 -75 -78 -229 -101 -346 -14
-72 -18 -139 -18 -275 1 -276 43 -466 155 -704 27 -57 49 -105 49 -106 0 -2
-17 -5 -37 -7 -33 -4 -45 0 -84 34 -69 56 -119 52 -119 -11 0 -32 33 -90 214
-372 205 -322 214 -334 242 -331 16 2 38 14 49 27 11 12 34 25 52 29 31 5 31
5 57 -70 l25 -75 -27 -10 c-15 -6 -49 -19 -77 -30 l-50 -20 -30 38 c-46 58
-136 144 -163 154 -48 18 -115 7 -441 -71 -184 -44 -335 -80 -337 -80 -2 0
-19 -14 -38 -31 -50 -43 -60 -102 -53 -309 6 -180 30 -319 87 -515 116 -400
289 -665 434 -665 39 0 668 193 702 215 12 8 29 33 37 57 8 24 20 42 26 41 8
-2 11 33 11 117 0 102 2 120 16 120 10 0 14 7 12 23 -2 12 -9 21 -17 19 -12
-3 -12 0 -1 12 18 22 120 23 120 1 0 -8 9 -15 20 -15 13 0 20 -7 20 -20 0 -16
7 -20 30 -20 23 0 30 4 30 20 0 16 7 20 35 20 28 0 35 -4 35 -20 0 -13 7 -20
20 -20 11 0 20 -7 20 -15 0 -10 11 -15 35 -15 28 0 35 -4 35 -20 0 -16 -7 -20
-35 -20 -24 0 -35 -5 -35 -15 0 -12 -13 -15 -55 -15 -42 0 -55 -3 -55 -15 0
-8 -7 -15 -15 -15 -12 0 -15 -13 -15 -55 0 -42 -3 -55 -15 -55 -12 0 -15 -14
-15 -65 0 -36 4 -65 9 -65 4 0 11 -39 15 -87 15 -199 75 -451 156 -654 99
-250 220 -399 323 -399 22 0 173 41 336 91 338 103 339 104 361 207 7 34 17
62 21 62 5 0 9 34 9 76 0 47 -4 73 -10 69 -5 -3 -10 -1 -10 4 0 6 5 11 10 11
6 0 10 7 10 15 0 8 9 15 21 15 11 0 18 -4 15 -9 -7 -10 27 -21 67 -21 17 0 27
5 27 15 0 10 -10 15 -30 15 -23 0 -30 4 -30 20 0 18 7 20 65 20 51 0 65 3 65
15 0 12 13 15 55 15 l55 0 0 -35 c0 -24 5 -35 15 -35 8 0 15 -7 15 -15 0 -12
18 -15 100 -15 82 0 100 -3 100 -15 0 -10 11 -15 35 -15 28 0 35 -4 35 -20 0
-13 7 -20 20 -20 11 0 20 -7 20 -15 0 -10 11 -15 35 -15 28 0 35 -4 35 -20 0
-16 7 -20 30 -20 20 0 30 -5 30 -15 0 -10 11 -15 35 -15 24 0 35 -5 35 -15 0
-10 11 -15 35 -15 28 0 35 -4 35 -20 0 -17 7 -20 50 -20 38 0 50 -4 50 -15 0
-12 13 -15 55 -15 48 0 55 -2 55 -20 0 -19 7 -20 185 -20 178 0 185 1 185 20
0 18 7 20 70 20 56 0 70 3 70 15 0 12 14 15 70 15 63 0 70 2 70 20 0 17 7 20
39 20 22 0 46 7 55 15 8 8 18 15 21 15 4 0 24 13 44 28 20 16 60 42 90 58 117
63 234 201 257 304 10 47 5 109 -11 141 l-14 26 141 64 c95 44 146 73 159 91
57 80 51 401 -12 654 l-21 83 30 26 c24 20 32 38 42 90 7 36 16 65 21 65 5 0
9 25 9 55 0 42 3 55 15 55 8 0 15 7 15 15 0 10 -7 14 -22 12 -13 -2 -18 -2
-12 0 7 2 10 13 7 24 -5 16 0 19 31 19 25 0 36 -4 36 -15 0 -10 11 -15 35 -15
24 0 35 5 35 15 0 8 -9 15 -20 15 -13 0 -20 7 -20 20 0 18 7 20 55 20 48 0 55
-2 55 -20 0 -12 7 -20 16 -20 13 0 15 8 12 35 -3 30 -1 35 17 35 19 0 20 5 17
120 -3 96 -6 120 -18 120 -10 0 -14 13 -14 51 l0 50 -37 -3 c-36 -3 -38 -5
-35 -35 2 -25 -1 -33 -12 -33 -9 0 -16 -8 -16 -19 0 -14 -5 -18 -20 -14 -11 3
-20 12 -20 19 0 8 9 14 20 14 15 0 20 7 20 29 0 16 6 31 15 35 8 3 15 15 15
26 0 13 7 20 20 20 11 0 20 7 20 15 0 8 -9 15 -20 15 -14 0 -20 7 -20 21 0 14
5 19 14 16 9 -4 17 2 21 14 6 18 22 24 53 20 6 -1 12 5 12 14 0 12 12 15 55
15 42 0 55 -3 55 -15 0 -8 7 -15 15 -15 10 0 15 -11 15 -35 0 -24 5 -35 15
-35 12 0 15 -14 15 -70 0 -63 2 -70 20 -70 19 0 20 -7 20 -117 -1 -90 -3 -114
-11 -99 -9 15 -13 16 -20 5 -5 -8 -3 -17 4 -21 7 -4 -7 -8 -30 -8 -32 0 -43
-4 -43 -15 0 -8 -4 -15 -10 -15 -5 0 -10 6 -10 13 0 9 -2 9 -9 -1 -4 -8 -11
-13 -15 -13 -22 3 -26 -4 -26 -49 l0 -50 100 0 c93 0 100 -1 100 -20 0 -16 7
-20 35 -20 24 0 35 -5 35 -15 0 -8 9 -15 20 -15 13 0 20 -7 20 -20 0 -16 7
-20 30 -20 20 0 30 -5 30 -15 0 -10 11 -15 35 -15 24 0 35 -5 35 -15 0 -10 11
-15 35 -15 28 0 35 -4 35 -20 0 -17 7 -20 50 -20 38 0 50 -4 50 -15 0 -12 13
-15 55 -15 48 0 55 -2 55 -20 0 -19 7 -20 185 -20 178 0 185 1 185 20 0 18 7
20 70 20 56 0 70 3 70 15 0 11 12 15 50 15 43 0 50 3 50 20 0 17 7 20 39 20
22 0 46 7 55 15 8 8 19 15 24 15 5 0 15 6 21 14 7 8 44 34 84 57 90 53 176
138 212 209 35 69 44 154 21 198 l-17 32 136 65 c162 76 163 79 172 245 15
277 -79 624 -224 827 -84 119 -152 161 -234 147 -48 -8 -132 -35 -144 -45 -5
-5 -18 -9 -29 -9 -25 0 -279 -76 -326 -97 -43 -20 -59 -40 -60 -75 0 -15 -4
-30 -10 -33 -13 -8 -13 -169 -1 -213 5 -17 11 -60 12 -94 3 -60 2 -63 -34 -91
l-36 -30 -93 68 c-51 37 -105 79 -120 93 l-28 26 63 25 c96 40 102 58 101 296
0 158 -4 207 -22 294 -62 283 -164 507 -287 624 -55 53 -105 71 -163 61 -87
-15 -578 -157 -594 -171 -39 -35 -51 -83 -51 -207 0 -67 5 -154 12 -193 l13
-73 54 0 c41 0 54 -4 54 -15 0 -8 7 -15 15 -15 8 0 15 7 15 15 0 8 9 15 20 15
11 0 20 7 20 15 0 8 7 15 15 15 8 0 15 9 15 20 0 16 7 20 35 20 28 0 35 -4 35
-20 0 -11 -7 -20 -15 -20 -8 0 -15 -7 -15 -15 0 -10 -11 -15 -35 -15 -24 0
-35 -5 -35 -15 0 -8 -9 -15 -20 -15 -13 0 -20 -7 -20 -20 0 -13 7 -20 20 -20
11 0 20 -7 20 -15 0 -8 7 -15 15 -15 8 0 15 7 15 15 0 9 9 15 21 15 16 0 20
-5 16 -19 -3 -14 0 -17 14 -14 23 6 26 33 4 33 -8 0 -15 9 -15 20 0 16 7 20
30 20 20 0 30 5 30 15 0 8 9 15 20 15 17 0 20 -7 20 -50 0 -38 4 -50 15 -50
12 0 15 -14 15 -70 0 -56 -3 -70 -15 -70 -8 0 -15 7 -15 15 0 8 -9 15 -20 15
-16 0 -20 -7 -20 -30 0 -20 -5 -30 -15 -30 -8 0 -15 -9 -15 -20 0 -17 -7 -20
-50 -20 -38 0 -50 -4 -50 -15 0 -10 -11 -15 -35 -15 -28 0 -35 -4 -35 -20 0
-16 -7 -20 -35 -20 -28 0 -35 4 -35 20 0 13 7 20 20 20 16 0 20 7 20 35 0 24
5 35 15 35 8 0 15 7 15 15 0 10 10 15 31 15 18 0 37 6 43 14 10 13 13 13 24 0
11 -12 9 -14 -8 -14 -11 0 -20 -7 -20 -15 0 -11 12 -15 50 -15 49 0 50 1 50
30 0 20 -5 30 -15 30 -9 0 -15 -9 -15 -22 0 -12 -3 -19 -6 -16 -3 3 -2 22 1
42 6 31 11 36 36 36 19 0 29 5 29 15 0 12 -14 15 -65 15 -51 0 -65 -3 -65 -15
0 -10 -11 -15 -35 -15 -28 0 -35 -4 -35 -20 0 -16 -7 -20 -35 -20 -27 0 -35
-4 -35 -18 0 -15 -6 -18 -31 -14 -22 3 -30 1 -25 -7 4 -6 2 -11 -3 -11 -6 0
-11 -18 -11 -40 0 -33 3 -40 20 -40 13 0 20 -7 20 -20 0 -11 7 -20 15 -20 8 0
15 -7 15 -15 0 -12 -14 -15 -70 -15 -56 0 -70 -3 -70 -15 0 -10 -10 -15 -30
-15 -23 0 -30 4 -30 20 0 13 5 18 15 14 8 -4 15 -1 15 5 0 6 -7 11 -15 11 -9
0 -15 9 -15 25 0 22 -4 25 -32 25 -25 0 -29 -3 -18 -10 13 -8 12 -10 -4 -10
-20 0 -20 0 0 -15 18 -14 18 -16 2 -29 -10 -7 -18 -18 -18 -25 0 -6 -9 -11
-20 -11 -13 0 -20 -7 -20 -20 0 -18 -7 -20 -65 -20 -58 0 -65 2 -65 20 0 13
-7 20 -20 20 -11 0 -20 7 -20 15 0 8 9 15 21 15 17 0 20 5 17 33 -3 29 -6 32
-40 35 -35 3 -36 2 -35 -30 2 -27 -2 -34 -20 -36 -14 -2 -20 -8 -16 -18 3 -8
1 -14 -5 -14 -14 0 -22 25 -22 66 0 34 0 34 -47 34 -37 0 -44 3 -35 12 7 7 12
22 12 35 0 19 -5 23 -34 23 -19 0 -39 -7 -47 -17 -11 -13 -11 -15 -1 -9 10 6
13 2 10 -13 -5 -32 -23 -25 -23 9 0 25 -4 30 -22 30 -14 0 -23 6 -23 15 0 8
-7 15 -15 15 -8 0 -15 7 -15 15 0 8 -7 15 -15 15 -8 0 -15 9 -15 20 0 18 -11
25 -33 21 -5 -1 -7 4 -5 11 5 12 10 14 51 17 15 1 18 8 15 49 -2 26 -7 50 -13
54 -5 4 2 8 18 8 17 0 27 5 27 15 0 10 -10 15 -30 15 -28 0 -30 3 -30 35 0 28
-4 35 -20 35 -16 0 -20 7 -20 35 0 30 3 35 24 35 19 0 24 -4 21 -20 -3 -15 2
-20 16 -20 11 0 17 -5 14 -10 -3 -6 1 -13 9 -16 9 -3 16 -15 16 -25 0 -15 7
-19 35 -19 24 0 35 -5 35 -15 0 -12 13 -15 55 -15 42 0 55 -3 55 -15 0 -12 14
-15 63 -15 62 0 63 0 65 -29 2 -21 -3 -31 -15 -34 -10 -3 53 -5 140 -6 133 -1
157 1 157 14 0 8 7 15 15 15 8 0 15 9 15 20 0 11 7 20 15 20 23 0 20 72 -4 99
-11 13 -22 45 -26 79 l-6 57 -40 -3 c-25 -3 -39 -9 -39 -18 0 -11 -19 -14 -84
-14 -49 0 -88 4 -91 11 -11 16 4 59 20 59 8 0 15 7 15 15 0 12 14 15 70 15 56
0 70 -3 70 -15 0 -8 5 -15 10 -15 6 0 13 7 16 15 4 8 12 15 20 15 8 0 14 7 14
15 0 11 -7 14 -24 9 -19 -4 -26 -1 -31 16 -4 12 -5 22 -3 23 60 31 72 60 72
172 0 148 -9 161 -240 359 -184 158 -197 167 -232 164 -35 -3 -37 -5 -36 -38
1 -19 4 -44 8 -55 7 -19 -13 -23 -456 -98 -255 -43 -466 -77 -470 -77 -3 0 -9
8 -11 18 -4 13 -5 11 -6 -5 -1 -22 -4 -23 -106 -23 -87 0 -105 -3 -105 -15 0
-10 -10 -15 -30 -15 -29 0 -30 1 -30 50 0 43 -3 50 -20 50 -11 0 -20 7 -20 15
0 8 -7 15 -15 15 -10 0 -15 11 -15 35 0 28 -4 35 -20 35 -16 0 -20 7 -20 35 0
24 -5 35 -15 35 -10 0 -15 11 -15 35 0 24 -5 35 -15 35 -11 0 -15 12 -15 50 0
43 -3 50 -20 50 -16 0 -20 7 -20 35 0 28 4 35 20 35 11 0 20 7 20 15 0 8 -9
15 -20 15 -13 0 -20 7 -20 20 0 11 -7 20 -15 20 -8 0 -15 7 -15 15 0 8 -9 15
-20 15 -13 0 -20 7 -20 20 0 11 -7 20 -15 20 -8 0 -15 7 -15 15 0 8 -9 15 -20
15 -13 0 -20 7 -20 20 0 16 -7 20 -30 20 -20 0 -30 5 -30 15 0 8 -9 15 -20 15
-11 0 -20 7 -20 15 0 10 -11 15 -35 15 -28 0 -35 4 -35 20 0 11 -7 20 -15 20
-8 0 -15 7 -15 15 0 10 -11 15 -35 15 -28 0 -35 4 -35 20 0 16 -7 20 -35 20
-24 0 -35 5 -35 15 0 10 -11 15 -35 15 -28 0 -35 4 -35 20 0 17 -7 20 -50 20
-38 0 -50 4 -50 15 0 12 -14 15 -70 15 -56 0 -70 3 -70 15 0 12 -18 15 -100
15 -93 0 -100 1 -100 20 0 19 -7 20 -120 20 l-120 0 0 35 c0 24 5 35 15 35 12
0 15 14 15 65 0 58 2 65 20 65 18 0 20 7 20 70 0 81 -19 97 -21 18 -2 -49 -2
-48 -10 22 -9 83 -29 162 -36 143 -3 -7 -20 -13 -39 -13 -27 0 -34 4 -34 20 0
11 -7 20 -15 20 -8 0 -15 7 -15 15 0 8 -9 15 -20 15 -16 0 -20 7 -20 35 0 24
-5 35 -15 35 -8 0 -15 7 -15 15 0 10 -11 15 -35 15 -28 0 -35 4 -35 20 0 11
-7 20 -15 20 -8 0 -15 7 -15 15 0 10 -11 15 -35 15 -28 0 -35 4 -35 20 0 20
-6 20 -140 19 -131 -1 -140 -2 -140 -20z m242 -56 c3 -8 108 -63 119 -63 10 0
82 -75 102 -107 50 -78 63 -131 59 -240 -2 -36 -5 -40 -22 -36 -17 5 -20 0
-20 -31 0 -29 4 -36 20 -36 16 0 20 -7 20 -30 0 -23 -4 -30 -20 -30 -11 0 -20
7 -20 15 0 8 -7 15 -15 15 -8 0 -15 -7 -15 -15 0 -8 -9 -15 -20 -15 -13 0 -20
-7 -20 -20 0 -13 7 -20 20 -20 13 0 20 7 20 20 0 11 7 20 15 20 8 0 15 -9 15
-20 0 -11 -7 -20 -15 -20 -8 0 -15 -7 -15 -15 0 -8 -9 -15 -20 -15 -13 0 -20
-7 -20 -20 0 -11 -7 -20 -15 -20 -8 0 -15 9 -15 20 0 11 7 20 15 20 8 0 15 7
15 15 0 8 -7 15 -15 15 -12 0 -15 16 -15 85 0 69 -3 85 -15 85 -12 0 -15 14
-15 70 0 63 -2 70 -20 70 -16 0 -20 7 -20 35 0 33 -2 35 -35 35 -34 0 -149
-34 -170 -49 -5 -5 -40 -16 -77 -26 -38 -10 -68 -23 -68 -29 0 -10 45 -173 65
-237 7 -21 6 -22 -9 -10 -14 12 -16 11 -16 -8 0 -14 6 -21 20 -21 11 0 20 -7
20 -15 0 -8 7 -15 15 -15 8 0 15 -9 15 -20 0 -13 7 -20 20 -20 16 0 20 -7 20
-30 0 -23 -4 -30 -20 -30 -11 0 -20 7 -20 15 0 11 -12 15 -50 15 -38 0 -50 4
-50 15 0 8 -7 15 -15 15 -8 0 -15 9 -15 20 0 16 -7 20 -31 20 -21 0 -28 -4
-24 -12 4 -7 0 -4 -9 6 -8 10 -13 23 -10 28 3 5 2 8 -3 7 -24 -4 -34 6 -62 64
-38 76 -54 155 -45 225 5 42 10 52 25 52 16 0 19 8 19 55 0 42 3 55 15 55 8 0
15 7 15 15 0 8 9 15 20 15 11 0 20 7 20 15 0 8 7 15 15 15 8 0 15 9 15 20 0
13 7 20 20 20 11 0 20 7 20 15 0 10 10 15 30 15 23 0 30 4 30 20 0 19 7 20
119 20 66 0 121 -3 123 -7z m648 -728 c0 -12 16 -15 85 -15 78 0 85 -2 85 -20
0 -18 7 -20 70 -20 56 0 70 -3 70 -15 0 -11 12 -15 50 -15 43 0 50 -3 50 -20
0 -16 7 -20 35 -20 24 0 35 -5 35 -15 0 -10 11 -15 35 -15 28 0 35 -4 35 -20
0 -16 7 -20 35 -20 24 0 35 -5 35 -15 0 -8 7 -15 15 -15 8 0 15 -7 15 -15 0
-10 11 -15 35 -15 28 0 35 -4 35 -20 0 -13 7 -20 20 -20 11 0 20 -7 20 -15 0
-8 7 -15 15 -15 12 0 15 -14 15 -70 l0 -70 -70 0 c-56 0 -70 3 -70 15 0 8 -7
15 -15 15 -8 0 -15 9 -15 20 0 16 -7 20 -35 20 -24 0 -35 5 -35 15 0 8 -7 15
-15 15 -8 0 -15 9 -15 20 0 16 -7 20 -35 20 -24 0 -35 5 -35 15 0 10 -11 15
-35 15 -28 0 -35 4 -35 20 0 16 -7 20 -35 20 -24 0 -35 5 -35 15 0 11 -12 15
-50 15 -38 0 -50 4 -50 15 0 12 -14 15 -70 15 -63 0 -70 2 -70 20 0 20 -7 20
-275 20 -268 0 -275 0 -275 -20 0 -18 -7 -20 -65 -20 -51 0 -65 -3 -65 -15 0
-11 -12 -15 -50 -15 -38 0 -50 -4 -50 -15 0 -10 -11 -15 -35 -15 -28 0 -35 -4
-35 -20 0 -16 -7 -20 -35 -20 -24 0 -35 -5 -35 -15 0 -10 -11 -15 -35 -15 -28
0 -35 -4 -35 -20 0 -11 -7 -20 -15 -20 -8 0 -15 -7 -15 -15 0 -10 -11 -15 -35
-15 -28 0 -35 -4 -35 -20 0 -13 -7 -20 -20 -20 -11 0 -20 -7 -20 -15 0 -8 -7
-15 -15 -15 -8 0 -15 -7 -15 -15 0 -10 -11 -15 -35 -15 -28 0 -35 -4 -35 -20
0 -11 -7 -20 -15 -20 -8 0 -15 -7 -15 -15 0 -8 -9 -15 -20 -15 -13 0 -20 -7
-20 -20 0 -11 -7 -20 -15 -20 -10 0 -15 -10 -15 -30 0 -23 -4 -30 -20 -30 -13
0 -20 -7 -20 -20 0 -11 -7 -20 -15 -20 -8 0 -15 -7 -15 -15 0 -8 -7 -15 -15
-15 -10 0 -15 -11 -15 -35 0 -28 -4 -35 -20 -35 -13 0 -20 -7 -20 -20 0 -11
-7 -20 -15 -20 -10 0 -15 -10 -15 -30 0 -23 -4 -30 -20 -30 -16 0 -20 -7 -20
-35 0 -24 -5 -35 -15 -35 -11 0 -15 -12 -15 -50 0 -43 -3 -50 -20 -50 -18 0
-20 -7 -20 -55 0 -42 -3 -55 -15 -55 -11 0 -15 -12 -15 -50 0 -38 -4 -50 -15
-50 -10 0 -15 -11 -15 -35 l0 -35 -55 0 -55 0 0 35 c0 24 -5 35 -15 35 -11 0
-15 12 -15 50 0 38 4 50 15 50 12 0 15 13 15 55 0 48 2 55 20 55 17 0 20 7 20
50 0 38 4 50 15 50 11 0 15 12 15 50 0 43 3 50 20 50 16 0 20 7 20 35 0 24 5
35 15 35 8 0 15 7 15 15 0 8 7 15 15 15 10 0 15 11 15 35 0 28 4 35 20 35 16
0 20 7 20 35 0 24 5 35 15 35 8 0 15 7 15 15 0 8 9 15 20 15 13 0 20 7 20 20
0 11 7 20 15 20 8 0 15 7 15 15 0 8 9 15 20 15 13 0 20 7 20 20 0 11 7 20 15
20 10 0 15 10 15 30 0 20 5 30 15 30 8 0 15 9 15 20 0 16 7 20 35 20 24 0 35
5 35 15 0 8 9 15 20 15 13 0 20 7 20 20 0 11 7 20 15 20 8 0 15 7 15 15 0 8 9
15 20 15 13 0 20 7 20 20 0 16 7 20 30 20 20 0 30 5 30 15 0 8 9 15 20 15 11
0 20 7 20 15 0 10 11 15 35 15 28 0 35 4 35 20 0 16 7 20 30 20 20 0 30 5 30
15 0 12 13 15 55 15 48 0 55 2 55 20 0 16 7 20 35 20 24 0 35 5 35 15 0 12 14
15 65 15 58 0 65 2 65 20 0 18 7 20 85 20 69 0 85 3 85 15 0 13 29 15 205 15
176 0 205 -2 205 -15z m-270 -400 c0 -24 5 -35 15 -35 10 0 15 11 15 35 l0 35
55 0 55 0 0 -35 c0 -24 5 -35 15 -35 12 0 15 -14 15 -65 0 -51 -3 -65 -15 -65
-10 0 -15 -11 -15 -35 0 -33 -2 -35 -35 -35 -24 0 -35 5 -35 15 0 12 -18 15
-105 15 l-105 0 0 55 c0 42 -3 55 -15 55 -8 0 -15 7 -15 15 0 8 -9 15 -20 15
-16 0 -20 7 -20 35 l0 35 55 0 c48 0 55 -2 55 -20 0 -11 7 -20 15 -20 10 0 15
11 15 35 0 33 2 35 35 35 33 0 35 -2 35 -35z m240 -15 c0 -38 -4 -50 -15 -50
-11 0 -15 12 -15 50 0 38 4 50 15 50 11 0 15 -12 15 -50z m-480 -15 c0 -24 -5
-35 -15 -35 -8 0 -15 -7 -15 -15 0 -8 -9 -15 -20 -15 -16 0 -20 7 -20 30 0 23
4 30 20 30 13 0 20 7 20 20 0 11 7 20 15 20 10 0 15 -11 15 -35z m620 15 c0
-13 -7 -20 -20 -20 -11 0 -20 -7 -20 -15 0 -10 11 -15 35 -15 33 0 35 2 35 35
0 24 5 35 15 35 8 0 15 -9 15 -20 0 -13 7 -20 20 -20 16 0 20 -7 20 -30 0 -20
5 -30 15 -30 10 0 15 10 15 30 0 23 4 30 20 30 11 0 20 -7 20 -15 0 -8 7 -15
15 -15 10 0 15 -11 15 -35 0 -33 2 -35 35 -35 28 0 35 4 35 20 0 11 7 20 15
20 12 0 15 -13 15 -55 0 -48 2 -55 20 -55 13 0 20 7 20 20 0 16 7 20 35 20 28
0 35 -4 35 -20 0 -11 7 -20 15 -20 8 0 15 -7 15 -15 0 -11 -12 -15 -50 -15
-38 0 -50 -4 -50 -15 0 -8 -9 -15 -20 -15 -18 0 -20 -7 -20 -55 0 -42 -3 -55
-15 -55 -10 0 -15 11 -15 35 0 33 -2 35 -35 35 -24 0 -35 -5 -35 -15 0 -8 -7
-15 -15 -15 -10 0 -15 -11 -15 -35 0 -33 2 -35 35 -35 33 0 35 -2 35 -35 0
-24 5 -35 15 -35 8 0 15 -7 15 -15 0 -10 11 -15 35 -15 24 0 35 5 35 15 0 11
12 15 50 15 38 0 50 4 50 15 0 8 9 15 20 15 19 0 20 7 20 90 0 73 3 90 15 90
12 0 15 -13 15 -55 0 -42 3 -55 15 -55 8 0 15 9 15 20 0 13 7 20 20 20 13 0
20 -7 20 -20 0 -11 7 -20 15 -20 8 0 15 -7 15 -15 0 -8 -7 -15 -15 -15 -8 0
-15 -9 -15 -20 0 -17 7 -20 50 -20 49 0 50 -1 50 -30 0 -20 -5 -30 -15 -30 -8
0 -15 -9 -15 -20 0 -17 7 -20 50 -20 l50 0 0 -35 c0 -28 -4 -35 -20 -35 -11 0
-20 -7 -20 -15 0 -10 11 -15 35 -15 24 0 35 -5 35 -15 0 -8 9 -15 20 -15 13 0
20 -7 20 -20 0 -16 -7 -20 -35 -20 -24 0 -35 -5 -35 -15 0 -8 -9 -15 -20 -15
-16 0 -20 7 -20 35 l0 35 -50 0 c-43 0 -50 -3 -50 -20 0 -11 -7 -20 -15 -20
-10 0 -15 -11 -15 -35 0 -24 5 -35 15 -35 11 0 15 -12 15 -50 0 -43 3 -50 20
-50 11 0 20 -7 20 -15 0 -10 10 -15 30 -15 20 0 30 5 30 15 0 8 9 15 20 15 17
0 20 7 20 50 l0 50 50 0 50 0 0 -35 c0 -33 -2 -35 -35 -35 -24 0 -35 -5 -35
-15 0 -12 13 -15 55 -15 l55 0 0 -35 c0 -33 -2 -35 -35 -35 -33 0 -35 -2 -35
-35 0 -33 2 -35 35 -35 33 0 35 -2 35 -35 0 -33 -2 -35 -35 -35 -24 0 -35 -5
-35 -15 0 -10 11 -15 35 -15 33 0 35 -2 35 -35 l0 -35 -55 0 c-42 0 -55 -3
-55 -15 0 -12 -14 -15 -65 -15 -58 0 -65 -2 -65 -20 0 -18 -7 -20 -70 -20 -56
0 -70 -3 -70 -15 0 -12 -14 -15 -70 -15 -56 0 -70 -3 -70 -15 0 -8 -7 -15 -15
-15 -8 0 -15 -9 -15 -20 0 -13 -7 -20 -20 -20 -16 0 -20 -7 -20 -35 0 -24 -5
-35 -15 -35 -13 0 -15 -26 -15 -170 0 -144 2 -170 15 -170 12 0 15 -16 15 -85
0 -78 2 -85 20 -85 18 0 20 -7 20 -70 0 -56 3 -70 15 -70 8 0 15 -7 15 -15 0
-8 -7 -15 -15 -15 -8 0 -15 7 -15 15 0 8 -9 15 -20 15 -17 0 -20 -7 -20 -50 0
-49 -1 -50 -30 -50 l-30 0 0 70 c0 63 -2 70 -20 70 -16 0 -20 7 -20 35 0 33
-2 35 -35 35 -24 0 -35 5 -35 15 0 8 -7 15 -15 15 -8 0 -15 7 -15 15 0 10 -11
15 -35 15 -28 0 -35 4 -35 20 0 11 -7 20 -15 20 -8 0 -15 7 -15 15 0 8 -9 15
-20 15 -13 0 -20 7 -20 20 0 11 -7 20 -15 20 -8 0 -15 7 -15 15 0 8 -9 15 -20
15 -13 0 -20 7 -20 20 0 11 -7 20 -15 20 -8 0 -15 7 -15 15 0 10 -11 15 -35
15 -24 0 -35 5 -35 15 0 8 -7 15 -15 15 -8 0 -15 9 -15 20 0 13 -7 20 -20 20
-11 0 -20 7 -20 15 0 11 -12 15 -50 15 l-50 0 0 -65 0 -65 -70 0 c-63 0 -70
-2 -70 -20 0 -19 -7 -20 -100 -20 -82 0 -100 -3 -100 -15 0 -10 -11 -15 -35
-15 -24 0 -35 5 -35 15 0 10 -11 15 -35 15 -24 0 -35 -5 -35 -15 0 -11 -12
-15 -50 -15 -43 0 -50 -3 -50 -20 0 -19 -7 -20 -120 -20 -100 0 -120 -2 -120
-15 0 -8 -7 -15 -15 -15 -8 0 -15 7 -15 15 0 8 -9 15 -20 15 -13 0 -20 7 -20
20 0 13 7 20 20 20 11 0 20 7 20 15 0 10 -11 15 -35 15 -28 0 -35 4 -35 20 0
13 -7 20 -20 20 -11 0 -20 7 -20 15 0 8 9 15 20 15 16 0 20 7 20 35 l0 35 50
0 50 0 0 35 c0 24 5 35 15 35 8 0 15 -9 15 -20 0 -18 7 -20 55 -20 l55 0 0 85
c0 78 -2 85 -20 85 -16 0 -20 7 -20 35 0 33 -2 35 -35 35 -24 0 -35 -5 -35
-15 0 -10 -10 -15 -30 -15 -23 0 -30 -4 -30 -20 0 -16 -7 -20 -35 -20 -24 0
-35 -5 -35 -15 0 -8 -9 -15 -20 -15 -16 0 -20 -7 -20 -35 l0 -35 -50 0 -50 0
0 35 c0 33 2 35 35 35 24 0 35 5 35 15 0 11 -12 15 -50 15 l-50 0 0 35 c0 32
2 35 30 35 23 0 30 4 30 20 0 16 -7 20 -30 20 -29 0 -30 1 -30 50 0 38 4 50
15 50 8 0 15 7 15 15 0 8 -7 15 -15 15 -10 0 -15 11 -15 35 0 24 5 35 15 35 8
0 15 7 15 15 0 8 -7 15 -15 15 -12 0 -15 13 -15 55 0 54 0 55 30 55 28 0 30
-3 30 -35 0 -28 4 -35 20 -35 16 0 20 -7 20 -35 l0 -35 50 0 c38 0 50 4 50 15
0 8 9 15 20 15 13 0 20 7 20 20 0 18 7 20 65 20 l65 0 0 70 c0 56 -3 70 -15
70 -10 0 -15 10 -15 30 l0 30 -70 0 c-56 0 -70 -3 -70 -15 0 -11 -12 -15 -50
-15 -38 0 -50 -4 -50 -15 0 -8 -9 -15 -20 -15 -13 0 -20 -7 -20 -20 0 -16 -7
-20 -30 -20 -28 0 -30 3 -30 35 0 32 2 35 30 35 20 0 30 5 30 15 0 8 -7 15
-15 15 -10 0 -15 11 -15 35 0 33 2 35 35 35 33 0 35 2 35 35 0 28 -4 35 -20
35 -13 0 -20 7 -20 20 0 13 7 20 20 20 11 0 20 7 20 15 0 10 11 15 35 15 24 0
35 5 35 15 0 8 -9 15 -20 15 -16 0 -20 7 -20 35 l0 35 55 0 c48 0 55 2 55 20
0 16 -7 20 -35 20 -24 0 -35 5 -35 15 0 8 7 15 15 15 8 0 15 7 15 15 0 10 11
15 35 15 l35 0 0 -85 c0 -69 3 -85 15 -85 8 0 15 -7 15 -15 0 -12 13 -15 55
-15 42 0 55 3 55 15 0 11 12 15 50 15 38 0 50 -4 50 -15 0 -8 -9 -15 -20 -15
-17 0 -20 -7 -20 -50 0 -43 3 -50 20 -50 18 0 20 -7 20 -70 0 -56 3 -70 15
-70 10 0 15 -11 15 -35 0 -28 4 -35 20 -35 16 0 20 -7 20 -35 0 -24 5 -35 15
-35 8 0 15 -7 15 -15 0 -8 9 -15 20 -15 13 0 20 -7 20 -20 0 -11 7 -20 15 -20
8 0 15 -7 15 -15 0 -10 11 -15 35 -15 24 0 35 -5 35 -15 0 -10 11 -15 35 -15
28 0 35 -4 35 -20 0 -18 7 -20 85 -20 69 0 85 -3 85 -15 0 -8 7 -15 15 -15 8
0 15 7 15 15 0 10 11 15 35 15 24 0 35 -5 35 -15 0 -8 7 -15 15 -15 11 0 15
-12 15 -50 0 -38 -4 -50 -15 -50 -10 0 -15 -11 -15 -35 l0 -35 50 0 50 0 0 65
c0 58 2 65 20 65 13 0 20 7 20 20 0 11 7 20 15 20 8 0 15 7 15 15 0 8 -7 15
-15 15 -10 0 -14 10 -13 36 1 26 4 31 10 20 12 -21 58 -21 58 -1 0 8 7 15 15
15 8 0 15 7 15 15 0 8 7 15 15 15 8 0 15 9 15 20 0 13 7 20 20 20 11 0 20 7
20 15 0 8 7 15 15 15 10 0 15 11 15 35 0 28 4 35 20 35 16 0 20 7 20 35 0 24
5 35 15 35 13 0 15 26 15 170 0 144 -2 170 -15 170 -11 0 -15 12 -15 50 0 43
-3 50 -20 50 -13 0 -20 7 -20 20 0 11 -7 20 -15 20 -10 0 -15 11 -15 35 0 28
-4 35 -20 35 -11 0 -20 7 -20 15 0 10 -10 15 -30 15 -23 0 -30 4 -30 20 0 18
7 20 65 20 l65 0 0 65 c0 51 -3 65 -15 65 -11 0 -15 12 -15 50 0 43 -3 50 -20
50 -13 0 -20 7 -20 20 0 18 7 20 55 20 48 0 55 -2 55 -20z m-720 -65 c0 -8 -9
-15 -20 -15 -13 0 -20 -7 -20 -20 0 -11 -7 -20 -15 -20 -8 0 -15 -7 -15 -15 0
-8 -7 -15 -15 -15 -10 0 -15 -11 -15 -35 0 -24 5 -35 15 -35 10 0 15 -11 15
-35 0 -24 -5 -35 -15 -35 -8 0 -15 -7 -15 -15 0 -8 -9 -15 -20 -15 -13 0 -20
-7 -20 -20 0 -11 -7 -20 -15 -20 -10 0 -15 -11 -15 -35 0 -33 -2 -35 -35 -35
-33 0 -35 2 -35 35 l0 35 -50 0 -50 0 0 -50 c0 -43 -3 -50 -20 -50 -16 0 -20
7 -20 35 0 33 -2 35 -35 35 -33 0 -35 2 -35 35 0 33 2 35 35 35 33 0 35 2 35
35 l0 35 50 0 50 0 0 50 c0 43 3 50 20 50 13 0 20 -7 20 -20 0 -16 7 -20 35
-20 l35 0 0 55 c0 42 3 55 15 55 8 0 15 -9 15 -20 0 -16 7 -20 35 -20 33 0 35
2 35 35 0 33 2 35 35 35 24 0 35 -5 35 -15z m130 -70 c0 -8 9 -15 20 -15 13 0
20 -7 20 -20 0 -13 -7 -20 -20 -20 -13 0 -20 7 -20 20 0 11 -7 20 -15 20 -8 0
-15 7 -15 15 0 8 7 15 15 15 8 0 15 -7 15 -15z m1130 0 c0 -8 9 -15 20 -15 13
0 20 -7 20 -20 0 -13 -7 -20 -20 -20 -13 0 -20 7 -20 20 0 11 -7 20 -15 20 -8
0 -15 7 -15 15 0 8 7 15 15 15 8 0 15 -7 15 -15z m-650 -35 c0 -11 -7 -20 -15
-20 -8 0 -15 9 -15 20 0 11 7 20 15 20 8 0 15 -9 15 -20z m820 -135 c0 -8 -7
-15 -15 -15 -8 0 -15 7 -15 15 0 8 7 15 15 15 8 0 15 -7 15 -15z m-300 -50 c0
-28 -4 -35 -20 -35 -16 0 -20 7 -20 35 0 28 4 35 20 35 16 0 20 -7 20 -35z
m-790 -20 c0 -8 7 -15 15 -15 10 0 15 -11 15 -35 0 -28 4 -35 20 -35 11 0 20
-7 20 -15 0 -8 7 -15 15 -15 13 0 15 -20 15 -120 0 -100 -2 -120 -15 -120 -12
0 -15 -16 -15 -85 l0 -85 -35 0 c-28 0 -35 -4 -35 -20 0 -16 -7 -20 -35 -20
-33 0 -35 -2 -35 -35 l0 -35 -70 0 c-63 0 -70 2 -70 20 0 13 7 20 20 20 18 0
20 7 20 65 l0 65 -50 0 c-38 0 -50 -4 -50 -15 0 -12 -13 -15 -55 -15 l-55 0 0
35 c0 24 -5 35 -15 35 -11 0 -15 12 -15 50 l0 50 35 0 c28 0 35 4 35 20 0 16
7 20 35 20 32 0 35 2 35 30 0 23 -4 30 -20 30 -16 0 -20 7 -20 35 0 33 -2 35
-35 35 -28 0 -35 4 -35 20 0 13 7 20 20 20 11 0 20 7 20 15 0 8 7 15 15 15 8
0 15 7 15 15 0 8 9 15 20 15 16 0 20 -7 20 -30 0 -29 1 -30 50 -30 l50 0 0
-55 c0 -42 3 -55 15 -55 10 0 15 -10 15 -30 0 -20 -5 -30 -15 -30 -8 0 -15 -9
-15 -20 0 -11 7 -20 15 -20 8 0 15 -7 15 -15 0 -8 9 -15 20 -15 16 0 20 -7 20
-35 0 -24 5 -35 15 -35 8 0 15 -9 15 -20 0 -16 7 -20 35 -20 33 0 35 2 35 35
0 24 -5 35 -15 35 -12 0 -15 14 -15 70 0 63 -2 70 -20 70 -11 0 -20 7 -20 15
0 8 -7 15 -15 15 -12 0 -15 13 -15 55 0 48 -2 55 -20 55 -11 0 -20 7 -20 15 0
8 9 15 20 15 17 0 20 7 20 50 l0 50 50 0 c38 0 50 -4 50 -15z m720 -50 c0 -28
-4 -35 -20 -35 -16 0 -20 7 -20 35 0 28 4 35 20 35 16 0 20 -7 20 -35z m480
-20 c0 -8 -9 -15 -20 -15 -11 0 -20 7 -20 15 0 8 9 15 20 15 11 0 20 -7 20
-15z m-1780 -65 c0 -13 -7 -20 -20 -20 -13 0 -20 7 -20 20 0 13 7 20 20 20 13
0 20 -7 20 -20z m-140 -35 c0 -8 -7 -15 -15 -15 -8 0 -15 7 -15 15 0 8 7 15
15 15 8 0 15 -7 15 -15z m930 -20 c0 -24 5 -35 15 -35 10 0 15 -10 15 -30 0
-28 -3 -30 -35 -30 l-35 0 0 65 c0 58 2 65 20 65 16 0 20 -7 20 -35z m-280
-115 c0 -11 -7 -20 -15 -20 -8 0 -15 9 -15 20 0 11 7 20 15 20 8 0 15 -9 15
-20z m2670 -85 l0 -35 70 0 c63 0 70 -2 70 -20 0 -16 7 -20 30 -20 20 0 30 -5
30 -15 0 -8 9 -15 20 -15 11 0 20 -7 20 -15 0 -8 7 -15 15 -15 10 0 15 -11 15
-35 0 -28 4 -35 20 -35 13 0 20 -7 20 -20 0 -18 -7 -20 -85 -20 -69 0 -85 -3
-85 -15 0 -10 -11 -15 -35 -15 -24 0 -35 5 -35 15 0 12 -13 15 -55 15 -48 0
-55 2 -55 20 0 11 -7 20 -15 20 -8 0 -15 -9 -15 -20 0 -11 -7 -20 -15 -20 -12
0 -15 17 -15 90 0 57 -4 90 -11 90 -5 0 -8 -4 -5 -8 3 -5 -1 -9 -7 -9 -16 0
-20 34 -5 43 6 4 14 0 19 -7 6 -10 9 -6 9 14 0 23 4 27 30 27 23 0 30 4 30 20
0 13 7 20 20 20 16 0 20 -7 20 -35z m340 15 c0 -13 7 -20 20 -20 11 0 20 -7
20 -15 0 -8 7 -15 15 -15 8 0 15 -9 15 -20 0 -11 7 -20 15 -20 8 0 15 -7 15
-15 0 -8 9 -15 20 -15 11 0 20 -7 20 -15 0 -8 -9 -15 -20 -15 -11 0 -20 7 -20
15 0 8 -7 15 -15 15 -8 0 -15 7 -15 15 0 8 -7 15 -15 15 -8 0 -15 9 -15 20 0
13 -7 20 -20 20 -11 0 -20 7 -20 15 0 10 -11 15 -35 15 -28 0 -35 4 -35 20 0
16 7 20 35 20 28 0 35 -4 35 -20z m-2730 -85 c0 -28 -4 -35 -20 -35 -11 0 -20
-7 -20 -15 0 -8 -7 -15 -15 -15 -8 0 -15 7 -15 15 0 8 7 15 15 15 10 0 15 11
15 35 0 28 4 35 20 35 16 0 20 -7 20 -35z m880 15 c0 -11 -7 -20 -15 -20 -8 0
-15 9 -15 20 0 11 7 20 15 20 8 0 15 -9 15 -20z m280 -65 c0 -8 7 -15 15 -15
13 0 15 -20 15 -120 0 -100 -2 -120 -15 -120 -12 0 -15 20 -15 120 0 113 -1
120 -20 120 -11 0 -20 7 -20 15 0 8 9 15 20 15 11 0 20 -7 20 -15z m-2160 -50
c0 -24 -5 -35 -15 -35 -10 0 -15 11 -15 35 0 24 5 35 15 35 10 0 15 -11 15
-35z m-130 -90 c0 -8 -9 -15 -20 -15 -11 0 -20 7 -20 15 0 8 9 15 20 15 11 0
20 -7 20 -15z m3310 -9 c0 -7 3 -34 6 -60 l7 -46 -34 0 c-19 0 -85 -11 -147
-24 -62 -13 -110 -21 -107 -18 8 9 -27 42 -45 42 -9 0 -21 -5 -27 -11 -9 -9
-20 -5 -45 17 l-34 29 196 41 c227 48 230 48 230 30z m243 -27 c3 -11 11 -19
19 -18 38 5 48 -2 48 -31 0 -20 -5 -30 -15 -30 -8 0 -15 -9 -15 -20 0 -15 -7
-20 -26 -20 -17 0 -23 -4 -18 -12 5 -9 2 -9 -9 1 -10 8 -17 28 -17 47 0 19 -3
33 -7 33 -21 -3 -33 2 -33 16 0 8 -7 15 -15 15 -8 0 -15 9 -15 20 0 17 7 20
49 20 41 0 50 -3 54 -21z m31 0 c-3 -5 -10 -7 -15 -3 -5 3 -7 10 -3 15 3 5 10
7 15 3 5 -3 7 -10 3 -15z m228 2 c-8 -4 -13 -11 -12 -15 1 -4 -1 -12 -4 -19
-3 -9 -1 26 3 41 1 1 7 2 14 2 9 0 9 -2 -1 -9z m-385 -36 c0 -9 -10 -15 -24
-15 -24 0 -32 25 -10 33 18 6 34 -2 34 -18z m-2407 -30 c0 -8 -7 -15 -15 -15
-8 0 -15 7 -15 15 0 8 7 15 15 15 8 0 15 -7 15 -15z m1828 4 c-37 -21 -41 -47
-13 -83 l26 -34 -22 -7 c-14 -5 -25 -2 -30 6 -6 9 -9 -1 -9 -28 0 -36 3 -43
20 -43 18 0 20 -7 20 -55 0 -48 -2 -55 -20 -55 -13 0 -20 7 -20 20 0 11 -7 20
-15 20 -12 0 -15 13 -15 60 0 33 -4 60 -10 60 -5 0 -10 -6 -10 -12 0 -9 -4 -8
-10 2 -5 8 -10 38 -10 65 0 35 -3 46 -10 35 -5 -8 -12 -11 -16 -7 -12 11 17
37 42 37 21 0 24 -5 24 -35 0 -25 4 -35 16 -35 11 0 14 5 9 18 -3 9 -9 29 -12
44 -5 23 -2 27 23 31 54 8 60 7 42 -4z m-1898 -39 c0 -18 7 -20 55 -20 42 0
55 -3 55 -15 0 -12 -13 -15 -55 -15 -42 0 -55 3 -55 15 0 8 -7 15 -15 15 -8 0
-15 9 -15 20 0 11 7 20 15 20 8 0 15 -9 15 -20z m1710 -55 c0 -28 4 -35 20
-35 11 0 20 -7 20 -15 0 -10 -11 -15 -35 -15 -24 0 -35 -5 -35 -15 0 -10 -11
-15 -35 -15 -24 0 -35 5 -35 15 0 8 -7 15 -15 15 -8 0 -15 7 -15 15 0 8 -9 15
-20 15 -13 0 -20 7 -20 20 0 18 7 20 55 20 42 0 55 3 55 15 0 10 10 15 30 15
28 0 30 -3 30 -35z m240 20 c0 -8 9 -15 20 -15 13 0 20 -7 20 -20 0 -13 -7
-20 -20 -20 -13 0 -20 7 -20 20 0 11 -7 20 -15 20 -8 0 -15 7 -15 15 0 8 7 15
15 15 8 0 15 -7 15 -15z m110 -36 c0 -25 -33 -22 -38 4 -2 12 3 17 17 17 15 0
21 -6 21 -21z m300 -5 c0 -8 -6 -14 -12 -15 -10 0 -10 -2 0 -6 13 -5 7 -23 -9
-23 -5 0 -9 16 -9 35 0 26 3 33 15 29 8 -4 15 -12 15 -20z m-170 -29 c0 -8 9
-15 20 -15 11 0 20 -7 20 -15 0 -8 7 -15 15 -15 8 0 15 -8 15 -19 0 -11 9 -21
23 -25 18 -5 20 -8 7 -16 -23 -15 -60 -12 -60 5 0 8 -9 15 -20 15 -13 0 -20 7
-20 20 0 11 -7 20 -15 20 -8 0 -15 7 -15 15 0 8 -9 15 -20 15 -11 0 -20 7 -20
15 0 10 11 15 35 15 24 0 35 -5 35 -15z m-136 -75 c-6 -6 -10 -3 -10 10 0 13
4 16 10 10 7 -7 7 -13 0 -20z m-27 -2 c-3 -8 -6 -5 -6 6 -1 11 2 17 5 13 3 -3
4 -12 1 -19z m333 -43 c0 -19 -4 -35 -10 -35 -5 0 -10 6 -10 13 0 6 -3 22 -6
35 -5 16 -2 22 10 22 12 0 16 -9 16 -35z m-3210 -100 c0 -24 -5 -35 -15 -35
-10 0 -15 11 -15 35 0 24 5 35 15 35 10 0 15 -11 15 -35z m100 -20 c0 -8 -7
-15 -15 -15 -8 0 -15 7 -15 15 0 8 7 15 15 15 8 0 15 -7 15 -15z m3180 4 c0
-4 -7 -9 -15 -13 -9 -3 -15 0 -15 8 0 7 7 13 15 13 8 0 15 -4 15 -8z m-580
-69 c0 -17 -7 -20 -50 -20 -43 0 -50 3 -50 20 0 17 7 20 50 20 43 0 50 -3 50
-20z m1460 -10 c-12 -8 -13 -10 -1 -10 8 0 12 -3 8 -6 -11 -12 -25 6 -20 27 4
15 9 17 17 9 8 -8 7 -13 -4 -20z m-4300 -45 c0 -24 -5 -35 -15 -35 -10 0 -15
11 -15 35 0 24 5 35 15 35 10 0 15 -11 15 -35z m3050 20 c0 -8 7 -15 15 -15
12 0 15 -16 15 -85 0 -69 3 -85 15 -85 12 0 15 -14 15 -70 0 -64 2 -70 21 -70
18 0 20 -5 17 -47 -3 -46 -4 -48 -35 -51 -25 -2 -33 -8 -33 -23 0 -16 -7 -19
-50 -19 l-50 0 0 35 c0 28 -4 35 -20 35 -18 0 -20 7 -20 85 0 69 -3 85 -15 85
-12 0 -15 13 -15 55 0 42 -3 55 -15 55 -11 0 -15 12 -15 50 0 49 1 50 30 50
20 0 30 5 30 15 0 12 13 15 55 15 42 0 55 -3 55 -15z m-210 -35 c0 -16 -7 -20
-35 -20 -28 0 -35 4 -35 20 0 16 7 20 35 20 28 0 35 -4 35 -20z m-920 -35 c0
-8 7 -15 15 -15 10 0 15 -11 15 -35 0 -24 -5 -35 -15 -35 -8 0 -15 9 -15 20 0
13 -7 20 -20 20 -11 0 -20 7 -20 15 0 10 -10 15 -30 15 l-30 0 0 -68 c0 -63
-2 -68 -22 -69 -22 -2 -22 -1 -4 13 17 12 18 14 3 14 -14 0 -17 11 -17 70 l0
70 70 0 c56 0 70 -3 70 -15z m-2020 -30 c0 -8 -7 -15 -15 -15 -8 0 -15 7 -15
15 0 8 7 15 15 15 8 0 15 -7 15 -15z m2962 -15 c11 0 18 -7 18 -20 0 -13 -7
-20 -20 -20 -13 0 -20 7 -20 20 0 11 -4 20 -10 20 -5 0 -10 5 -10 12 0 9 3 9
12 0 7 -7 20 -12 30 -12z m863 10 c3 -6 -1 -7 -9 -4 -18 7 -21 14 -7 14 6 0
13 -4 16 -10z m-915 -31 c0 -25 -33 -22 -38 4 -2 12 3 17 17 17 15 0 21 -6 21
-21z m480 -34 c0 -8 -9 -15 -20 -15 -11 0 -20 7 -20 15 0 8 9 15 20 15 11 0
20 -7 20 -15z m-1337 -2 c-7 -2 -19 -2 -25 0 -7 3 -2 5 12 5 14 0 19 -2 13 -5z
m-3 -88 c0 -28 4 -35 20 -35 16 0 20 -7 20 -30 0 -20 5 -30 15 -30 12 0 15
-14 15 -70 0 -56 -3 -70 -15 -70 -8 0 -15 -9 -15 -20 0 -16 -7 -20 -35 -20
-28 0 -35 4 -35 20 0 13 -7 20 -20 20 -17 0 -20 7 -20 50 0 38 -4 50 -15 50
-12 0 -15 16 -15 85 l0 85 50 0 50 0 0 -35z m3268 -107 c7 -7 12 -43 12 -90 0
-63 -3 -78 -15 -78 -11 0 -15 -12 -15 -50 l0 -50 70 0 c56 0 70 -3 70 -15 0
-12 16 -15 85 -15 78 0 85 -2 85 -20 0 -11 7 -20 15 -20 11 0 15 -12 15 -50
l0 -50 -135 0 c-128 0 -135 1 -135 20 0 18 -7 20 -70 20 l-70 0 0 -70 c0 -56
-3 -70 -15 -70 -10 0 -15 -11 -15 -35 0 -28 -4 -35 -20 -35 -11 0 -20 -7 -20
-15 0 -12 -14 -15 -65 -15 -51 0 -65 3 -65 15 0 8 -9 15 -20 15 -16 0 -20 7
-20 35 0 28 4 35 20 35 18 0 20 7 20 70 0 56 3 70 15 70 8 0 15 7 15 15 0 12
-14 15 -70 15 -56 0 -70 3 -70 15 0 12 -18 15 -100 15 -93 0 -100 1 -100 20 0
13 -7 20 -20 20 -17 0 -20 7 -20 50 l0 50 175 0 c149 0 175 -2 175 -15 0 -10
11 -15 35 -15 32 0 35 2 35 30 0 20 5 30 15 30 12 0 15 13 15 55 0 42 3 55 15
55 10 0 15 11 15 35 l0 35 73 0 c43 0 78 -5 85 -12z m532 -23 c0 -33 -2 -35
-35 -35 -28 0 -35 -4 -35 -20 0 -11 -7 -20 -15 -20 -8 0 -15 -7 -15 -15 0 -10
-11 -15 -35 -15 -28 0 -35 -4 -35 -20 0 -13 -7 -20 -20 -20 -11 0 -20 -7 -20
-15 0 -8 -7 -15 -15 -15 -8 0 -15 7 -15 15 0 8 7 15 15 15 8 0 15 9 15 20 0
13 7 20 20 20 11 0 20 6 20 14 0 7 9 16 21 19 12 3 18 10 14 16 -3 6 -2 11 4
11 5 0 12 -8 14 -17 4 -14 5 -12 6 5 1 15 7 22 21 22 11 0 20 7 20 15 0 8 7
15 15 15 8 0 15 9 15 20 0 13 7 20 20 20 16 0 20 -7 20 -35z m-2870 -55 c0
-13 -7 -20 -20 -20 -13 0 -20 7 -20 20 0 13 7 20 20 20 13 0 20 -7 20 -20z
m2900 -35 c0 -8 9 -15 20 -15 16 0 20 -7 20 -35 0 -24 5 -35 15 -35 12 0 15
-18 15 -100 0 -82 3 -100 15 -100 8 0 15 -9 15 -20 0 -11 -7 -20 -15 -20 -8 0
-15 9 -15 20 0 16 -7 20 -35 20 -24 0 -35 5 -35 15 0 8 -7 15 -15 15 -8 0 -15
7 -15 15 0 8 -9 15 -20 15 -13 0 -20 7 -20 20 0 11 -7 20 -15 20 -11 0 -15 12
-15 50 0 38 -4 50 -15 50 -8 0 -15 -7 -15 -15 0 -8 -9 -15 -20 -15 -11 0 -20
7 -20 15 0 8 9 15 20 15 11 0 20 7 20 15 0 10 10 15 30 15 23 0 30 4 30 20 0
13 7 20 20 20 11 0 20 7 20 15 0 8 7 15 15 15 8 0 15 -7 15 -15z m-4510 -70
c0 -8 7 -15 15 -15 8 0 15 -7 15 -15 0 -8 9 -15 20 -15 13 0 20 -7 20 -20 0
-11 7 -20 15 -20 8 0 15 -7 15 -15 0 -8 7 -15 15 -15 8 0 15 -9 15 -20 0 -13
7 -20 20 -20 16 0 20 -7 20 -30 0 -23 -4 -30 -20 -30 -16 0 -20 7 -20 30 0 20
-5 30 -15 30 -8 0 -15 9 -15 20 0 11 -7 20 -15 20 -8 0 -15 7 -15 15 0 8 -9
15 -20 15 -13 0 -20 7 -20 20 0 11 -7 20 -15 20 -8 0 -15 7 -15 15 0 10 -11
15 -35 15 -24 0 -35 5 -35 15 0 10 11 15 35 15 24 0 35 -5 35 -15z m1670 0 c0
-12 16 -15 85 -15 69 0 85 -3 85 -15 0 -10 11 -15 35 -15 33 0 35 -2 35 -35
l0 -35 -50 0 c-43 0 -50 -3 -50 -20 0 -11 -7 -20 -15 -20 -8 0 -15 -7 -15 -15
0 -9 -9 -15 -22 -15 -21 0 -21 -1 -15 -157 7 -169 23 -270 68 -452 16 -63 28
-115 27 -115 -28 -10 -65 -36 -80 -56 -38 -52 -45 -216 -18 -412 8 -57 7 -63
-14 -82 -55 -49 -50 -51 -196 58 l-135 100 30 11 c17 5 53 21 80 35 41 21 52
32 63 65 49 150 36 406 -34 688 -28 108 -33 142 -23 153 6 7 17 31 25 51 7 21
18 37 23 36 7 -2 11 44 11 137 l0 140 50 0 c38 0 50 -4 50 -15z m-2050 -30 c0
-12 14 -15 70 -15 63 0 70 -2 70 -20 0 -16 7 -20 35 -20 24 0 35 -5 35 -15 0
-10 11 -15 35 -15 33 0 35 -2 35 -35 0 -24 5 -35 15 -35 10 0 15 -11 15 -35 0
-24 5 -35 15 -35 8 0 15 -7 15 -15 0 -12 20 -15 120 -15 l120 0 0 -29 c0 -29
-14 -41 -51 -41 -12 0 -19 -7 -19 -20 0 -16 -7 -20 -30 -20 -23 0 -30 4 -30
20 0 16 -7 20 -35 20 -28 0 -35 -4 -35 -20 0 -17 -6 -20 -34 -17 -33 2 -37 13
-15 43 5 6 6 14 2 17 -3 4 -2 7 4 7 6 0 9 9 6 20 -5 19 -14 20 -174 20 -144 0
-169 2 -169 15 0 23 -52 19 -73 -6 -10 -11 -20 -19 -22 -17 -3 3 -8 192 -6
231 1 9 8 17 16 17 8 0 15 7 15 15 0 10 11 15 35 15 24 0 35 -5 35 -15z m-115
-34 c-3 -6 -11 -11 -16 -11 -5 0 -4 6 3 14 14 16 24 13 13 -3z m3225 -1 c0
-11 -7 -20 -15 -20 -8 0 -15 9 -15 20 0 11 7 20 15 20 8 0 15 -9 15 -20z
m-2360 -70 c0 -11 -7 -20 -15 -20 -8 0 -15 9 -15 20 0 11 7 20 15 20 8 0 15
-9 15 -20z m-60 -35 c0 -8 -9 -15 -20 -15 -11 0 -20 7 -20 15 0 8 9 15 20 15
11 0 20 -7 20 -15z m-70 -30 c0 -8 -9 -15 -20 -15 -11 0 -20 7 -20 15 0 8 9
15 20 15 11 0 20 -7 20 -15z m2770 -70 c0 -13 -24 -15 -155 -15 -131 0 -155 2
-155 15 0 13 24 15 155 15 131 0 155 -2 155 -15z m1736 -39 c7 -28 -1 -46 -19
-45 -9 0 -9 2 1 6 6 2 12 11 12 19 0 9 -4 13 -8 10 -4 -2 -9 4 -9 15 -2 27 15
24 23 -5z m-5056 -34 c0 -15 6 -17 35 -14 34 4 35 3 35 -32 0 -29 -4 -36 -20
-36 -11 0 -20 7 -20 15 0 8 -7 15 -15 15 -10 0 -15 -10 -15 -30 0 -32 -29 -44
-31 -12 0 14 -2 14 -9 -3 -7 -17 -9 -17 -9 -2 -1 9 -5 17 -11 17 -5 0 -10 7
-10 15 0 8 -7 15 -15 15 -9 0 -15 9 -15 21 0 12 -8 23 -20 26 -43 11 -17 23
50 23 61 0 70 -2 70 -18z m-793 -60 c-15 -15 -27 -32 -27 -36 0 -4 11 -22 26
-41 l25 -33 -21 -7 c-28 -9 -35 -1 -54 64 -18 60 -15 67 29 74 17 2 34 5 39 6
6 0 -2 -12 -17 -27z m131 -17 c2 -2 -1 -6 -6 -9 -5 -3 -18 4 -28 16 -19 21
-19 21 6 8 14 -7 26 -14 28 -15z m-228 -20 c0 -8 9 -15 20 -15 18 0 20 -7 20
-55 0 -42 3 -55 15 -55 11 0 15 -12 15 -50 0 -38 4 -50 15 -50 8 0 15 -7 15
-15 0 -10 -10 -15 -30 -15 -28 0 -30 3 -30 35 0 28 -4 35 -20 35 -17 0 -20 7
-20 49 0 31 -5 51 -13 54 -8 3 -14 24 -16 51 -1 36 1 46 14 46 8 0 15 -7 15
-15z m170 -20 c0 -24 -5 -35 -15 -35 -10 0 -15 11 -15 35 0 24 5 35 15 35 10
0 15 -11 15 -35z m554 20 c-4 -9 0 -15 10 -15 10 0 16 -8 16 -21 0 -16 5 -20
20 -16 15 4 20 0 20 -14 0 -15 7 -19 35 -19 28 0 35 -4 35 -20 0 -16 7 -20 30
-20 20 0 30 -5 30 -15 0 -12 17 -15 90 -15 83 0 90 -2 90 -20 0 -13 5 -18 15
-14 8 4 15 1 15 -5 0 -6 -8 -11 -17 -12 -15 0 -15 -2 2 -9 15 -6 6 -9 -32 -9
-40 -1 -53 -5 -53 -16 0 -13 26 -15 170 -15 144 0 170 2 170 15 0 10 11 15 35
15 28 0 35 4 35 20 0 11 7 20 15 20 12 0 15 14 15 65 0 62 1 65 24 65 13 0 39
7 59 15 l35 14 6 -37 c18 -101 7 -92 102 -92 68 0 84 3 84 15 0 8 7 15 15 15
8 0 15 9 15 20 0 13 7 20 20 20 11 0 20 7 20 15 0 10 11 15 35 15 24 0 35 -5
35 -15 0 -8 -9 -15 -20 -15 -13 0 -20 -7 -20 -20 0 -11 -7 -20 -15 -20 -8 0
-15 -7 -15 -15 0 -10 -10 -15 -34 -15 -27 0 -35 -4 -38 -23 -7 -36 1 -47 38
-47 24 0 34 -5 34 -15 0 -8 7 -15 15 -15 8 0 15 5 15 10 0 6 -7 13 -15 16 -8
4 -15 15 -15 25 0 15 7 19 35 19 24 0 35 5 35 15 0 8 7 15 15 15 8 0 15 -7 15
-15 0 -8 7 -15 15 -15 12 0 15 -13 15 -55 0 -48 2 -55 20 -55 17 0 20 -7 20
-50 0 -43 -3 -50 -20 -50 -11 0 -20 7 -20 15 0 8 -7 15 -15 15 -10 0 -15 -10
-15 -30 0 -20 -5 -30 -15 -30 -8 0 -15 -9 -15 -20 0 -16 -7 -20 -35 -20 -24 0
-35 -5 -35 -15 0 -11 -12 -15 -50 -15 -43 0 -50 -3 -50 -20 0 -16 -7 -20 -35
-20 -24 0 -35 -5 -35 -15 0 -12 -13 -15 -55 -15 -48 0 -55 -2 -55 -20 0 -18
-7 -20 -65 -20 -51 0 -65 -3 -65 -15 0 -13 -28 -15 -190 -15 -162 0 -190 2
-190 15 0 10 -11 15 -35 15 -21 0 -35 5 -35 13 0 15 20 46 20 31 0 -6 13 -9
31 -6 25 4 30 2 24 -9 -6 -11 -5 -12 6 -1 19 17 29 15 29 -8 0 -11 7 -20 15
-20 8 0 15 9 15 20 0 11 5 20 10 20 6 0 10 7 10 15 0 8 -4 15 -10 15 -5 0 -10
9 -10 20 0 24 -8 25 -46 5 -27 -14 -27 -15 -6 -15 13 0 22 -6 22 -15 0 -9 -9
-15 -22 -14 -22 0 -22 1 -3 9 18 8 17 9 -8 9 -20 1 -26 5 -21 14 4 6 4 9 -1 5
-4 -4 -14 0 -22 10 -13 15 -14 15 -9 0 3 -9 2 -19 -2 -21 -4 -2 -1 -2 6 -1 6
2 12 -3 12 -11 0 -17 -9 -19 -29 -6 -8 5 -11 16 -7 26 4 12 0 18 -14 22 -11 3
-20 12 -20 19 0 8 -9 14 -20 14 -13 0 -20 7 -20 20 0 16 -7 20 -35 20 -27 0
-33 -3 -28 -16 3 -9 0 -20 -8 -25 -10 -6 -10 -9 -1 -9 6 0 12 -4 12 -9 0 -13
-35 -6 -36 7 -1 7 -2 21 -3 32 0 11 -8 20 -16 20 -8 0 -15 6 -15 14 0 9 -12
16 -32 18 -30 3 -32 6 -36 43 -2 22 -8 45 -13 50 -7 7 -8 5 -4 -5 4 -11 -1
-16 -16 -17 -15 -1 -19 2 -15 13 3 9 6 24 6 35 0 12 7 19 20 19 13 0 20 -7 20
-20 0 -11 7 -20 15 -20 12 0 15 14 15 69 0 49 -5 74 -15 85 -8 8 -15 24 -15
35 0 14 -6 21 -20 21 -17 0 -20 7 -20 50 0 46 2 50 25 50 18 0 23 -4 19 -15z
m-417 -34 c0 -7 -9 -16 -19 -19 -10 -2 -18 -11 -18 -18 0 -8 -7 -14 -15 -14
-23 0 -18 27 6 33 13 4 19 11 16 19 -3 8 2 14 12 14 10 0 18 -7 18 -15z m262
-42 c-16 -10 -23 -4 -14 10 3 6 11 8 17 5 6 -4 5 -9 -3 -15z m2611 6 c0 -8 9
-15 20 -15 16 0 20 -7 20 -35 0 -28 -4 -35 -20 -35 -11 0 -20 7 -20 15 0 8 -7
15 -15 15 -8 0 -15 9 -15 20 0 13 -7 20 -20 20 -17 0 -20 -7 -20 -40 0 -22 -1
-43 -2 -47 -2 -5 14 -9 35 -11 29 -3 37 -7 37 -23 0 -12 7 -19 20 -19 16 0 20
-7 20 -35 0 -24 5 -35 15 -35 11 0 15 -12 15 -50 l0 -50 -50 0 -50 0 0 50 c0
43 -3 50 -20 50 -18 0 -20 7 -20 55 0 42 -3 55 -15 55 -12 0 -15 14 -15 65 l0
65 50 0 c38 0 50 -4 50 -15z m-2749 -55 c10 0 19 -7 19 -15 0 -8 7 -15 15 -15
8 0 15 -7 15 -15 0 -8 7 -15 15 -15 8 0 15 -9 15 -20 0 -16 -7 -20 -30 -20
-23 0 -30 4 -30 20 0 13 -7 20 -20 20 -11 0 -20 7 -20 15 0 8 -7 15 -15 15 -8
0 -15 7 -15 15 0 8 -9 15 -20 15 -13 0 -20 7 -20 19 0 15 8 21 33 23 27 2 33
-1 35 -19 2 -15 10 -23 23 -23z m-191 -16 c0 -8 7 -14 15 -14 8 0 15 -7 15
-15 0 -8 -7 -15 -15 -15 -8 0 -15 7 -15 15 0 8 -6 15 -14 15 -7 0 -16 8 -19
19 -3 14 0 17 14 14 11 -3 19 -12 19 -19z m3830 -34 c0 -38 -4 -50 -15 -50 -8
0 -15 9 -15 20 0 13 -7 20 -20 20 -16 0 -20 7 -20 30 0 28 3 30 35 30 l35 0 0
-50z m100 -31 c0 -10 -7 -19 -15 -19 -8 0 -15 -7 -15 -15 0 -8 -9 -15 -20 -15
-11 0 -20 7 -20 15 0 8 9 15 20 15 15 0 20 7 20 25 0 18 4 23 15 19 8 -4 15
-15 15 -25z m-3554 -34 c4 -8 0 -23 -7 -32 -10 -12 -10 -15 -1 -9 6 4 12 2 12
-3 0 -12 -23 -15 -33 -5 -3 4 -2 16 4 27 8 14 8 18 0 13 -12 -8 -15 6 -4 17
11 11 23 8 29 -8z m3594 -35 c0 -13 -7 -20 -20 -20 -13 0 -20 7 -20 20 0 13 7
20 20 20 13 0 20 -7 20 -20z m-120 -10 c-11 -7 -2 -10 33 -10 35 0 47 -4 47
-15 0 -10 11 -15 35 -15 24 0 35 5 35 15 0 8 9 15 20 15 11 0 20 -7 20 -15 0
-8 -9 -15 -20 -15 -13 0 -20 -7 -20 -20 0 -11 -7 -20 -15 -20 -8 0 -15 -7 -15
-15 0 -11 -11 -15 -40 -15 -22 0 -40 -4 -40 -9 0 -5 -11 -12 -25 -15 -18 -5
-31 0 -46 15 -27 27 -18 53 16 45 20 -5 25 -3 25 14 0 11 -7 20 -15 20 -8 0
-15 8 -15 18 0 21 8 32 24 32 6 0 4 -5 -4 -10z m-3412 -87 c-2 -9 -10 -18 -18
-20 -13 -4 -13 -3 0 6 10 7 11 11 3 11 -8 0 -13 13 -13 32 0 32 0 32 16 10 8
-12 14 -30 12 -39z m-638 -58 l0 -35 -55 0 -55 0 0 35 0 35 55 0 55 0 0 -35z
m230 -70 c0 -28 4 -35 20 -35 18 0 20 -7 20 -65 0 -51 3 -65 15 -65 12 0 15
-16 15 -85 0 -78 2 -85 20 -85 17 0 20 -7 20 -39 0 -35 -2 -39 -22 -33 -17 4
-20 2 -15 -12 5 -13 1 -19 -13 -23 -11 -3 -20 -12 -20 -19 0 -11 -17 -14 -70
-14 l-70 0 0 100 c0 82 -3 100 -15 100 -12 0 -15 16 -15 85 0 78 -2 85 -20 85
-13 0 -20 7 -20 20 0 11 -6 20 -14 20 -11 0 -14 10 -13 35 2 32 4 35 35 35 22
0 32 5 32 15 0 12 14 15 65 15 l65 0 0 -35z m-1260 -15 c0 -11 7 -20 15 -20 8
0 15 -7 15 -15 0 -8 9 -15 20 -15 13 0 20 -7 20 -20 0 -11 7 -20 15 -20 8 0
15 -7 15 -15 0 -10 -11 -15 -35 -15 -24 0 -35 5 -35 15 0 8 -7 15 -15 15 -8 0
-15 9 -15 20 0 16 -7 20 -35 20 l-35 0 0 -55 c0 -44 -3 -53 -15 -49 -12 5 -15
25 -15 90 l0 84 50 0 c43 0 50 -3 50 -20z m1030 0 c0 -16 -7 -20 -35 -20 -28
0 -35 4 -35 20 0 16 7 20 35 20 28 0 35 -4 35 -20z m0 -70 c0 -11 7 -20 15
-20 8 0 15 -7 15 -15 0 -8 -7 -15 -15 -15 -8 0 -15 -7 -15 -15 0 -8 -9 -15
-20 -15 -11 0 -20 7 -20 15 0 8 9 15 20 15 11 0 20 7 20 15 0 8 -9 15 -20 15
-13 0 -20 7 -20 20 0 13 7 20 20 20 13 0 20 -7 20 -20z m-960 -155 c0 -24 5
-35 15 -35 10 0 15 -10 15 -30 0 -23 4 -30 20 -30 18 0 20 -7 20 -55 0 -42 3
-55 15 -55 12 0 15 -19 15 -114 0 -63 -4 -117 -9 -120 -5 -4 -7 4 -5 16 l5 23
-12 -22 c-15 -29 -49 -31 -49 -3 0 11 -7 20 -15 20 -8 0 -15 7 -15 15 0 8 -9
15 -20 15 -17 0 -20 7 -20 50 0 38 -4 50 -15 50 -12 0 -15 13 -15 55 0 42 -3
55 -15 55 -12 0 -15 18 -15 100 l0 100 50 0 50 0 0 -35z m960 20 c0 -8 7 -15
15 -15 8 0 15 -9 15 -20 0 -11 -7 -20 -15 -20 -8 0 -15 9 -15 20 0 13 -7 20
-20 20 -11 0 -20 7 -20 15 0 8 9 15 20 15 11 0 20 -7 20 -15z m2350 -100 c0
-10 11 -15 35 -15 28 0 35 -4 35 -20 0 -18 7 -20 55 -20 42 0 55 -3 55 -15 0
-8 7 -15 15 -15 8 0 15 -9 15 -20 0 -11 7 -20 15 -20 8 0 15 -7 15 -15 0 -8 9
-15 20 -15 16 0 20 -7 20 -35 0 -24 5 -35 15 -35 12 0 15 -18 15 -100 0 -82
-3 -100 -15 -100 -10 0 -15 -11 -15 -35 0 -28 -4 -35 -20 -35 -13 0 -20 -7
-20 -20 0 -16 -7 -20 -30 -20 -20 0 -30 -5 -30 -15 0 -12 -13 -15 -55 -15 -48
0 -55 -2 -55 -20 0 -19 -7 -20 -120 -20 -113 0 -120 1 -120 20 0 18 -7 20 -65
20 -51 0 -65 3 -65 15 0 10 -11 15 -35 15 -28 0 -35 4 -35 20 0 16 -7 20 -35
20 -24 0 -35 5 -35 15 0 8 -7 15 -15 15 -10 0 -15 11 -15 35 0 28 -4 35 -20
35 -11 0 -20 7 -20 15 0 8 -7 15 -15 15 -12 0 -15 18 -15 105 0 87 3 105 15
105 10 0 15 11 15 35 0 28 4 35 20 35 11 0 20 7 20 15 0 10 10 15 30 15 23 0
30 4 30 20 0 18 7 20 55 20 42 0 55 3 55 15 0 13 23 15 150 15 127 0 150 -2
150 -15z m830 -105 c0 -15 -7 -20 -25 -20 -18 0 -23 -4 -19 -15 5 -12 -2 -15
-30 -15 -20 0 -36 5 -36 11 0 5 -4 7 -10 4 -5 -3 -10 -1 -10 4 0 6 14 11 30
11 23 0 30 4 30 20 0 16 7 20 35 20 28 0 35 -4 35 -20z m-3150 -35 c0 -8 -7
-15 -15 -15 -8 0 -15 7 -15 15 0 8 7 15 15 15 8 0 15 -7 15 -15z m3040 -35 c0
-11 -7 -20 -15 -20 -8 0 -15 -7 -15 -15 0 -10 -11 -15 -35 -15 -24 0 -35 -5
-35 -15 0 -8 -7 -15 -15 -15 -8 0 -15 -9 -15 -20 0 -13 -7 -20 -20 -20 -13 0
-20 7 -20 20 0 13 7 20 20 20 11 0 20 7 20 15 0 8 7 15 15 15 8 0 15 7 15 15
0 8 7 15 15 15 8 0 15 9 15 20 0 16 7 20 35 20 28 0 35 -4 35 -20z m140 -50
c0 -20 5 -30 15 -30 12 0 15 -14 15 -70 0 -63 2 -70 20 -70 18 0 20 -7 20 -70
l0 -70 -35 0 c-28 0 -35 4 -35 20 0 11 -7 20 -15 20 -8 0 -15 7 -15 15 0 8 -9
15 -20 15 -13 0 -20 7 -20 20 0 16 -7 20 -30 20 -16 0 -31 6 -32 13 -2 18 -6
69 -7 95 -1 24 -31 32 -31 7 0 -8 -9 -15 -20 -15 -11 0 -20 7 -20 15 0 8 9 15
20 15 13 0 20 7 20 20 0 16 7 20 35 20 24 0 35 5 35 15 0 8 7 15 15 15 8 0 15
7 15 15 0 10 11 15 35 15 32 0 35 -2 35 -30z m-1950 -85 c0 -8 -7 -15 -15 -15
-8 0 -15 -9 -15 -20 0 -13 -7 -20 -20 -20 -13 0 -20 7 -20 20 0 13 7 20 20 20
11 0 20 7 20 15 0 8 7 15 15 15 8 0 15 -7 15 -15z m310 -240 c0 -13 -26 -15
-170 -15 -144 0 -170 2 -170 15 0 13 26 15 170 15 144 0 170 -2 170 -15z m0
-100 c0 -13 -24 -15 -155 -15 -131 0 -155 2 -155 15 0 13 24 15 155 15 131 0
155 -2 155 -15z m270 -35 c0 -43 3 -50 20 -50 18 0 20 -7 20 -55 0 -42 3 -55
15 -55 12 0 15 -18 15 -100 0 -81 3 -100 15 -100 10 0 14 -10 13 -34 -1 -18
-6 -33 -12 -33 -33 1 -46 -5 -46 -18 0 -12 -16 -15 -85 -15 l-85 0 0 100 c0
93 -1 100 -20 100 -17 0 -20 7 -20 50 0 38 -4 50 -15 50 -8 0 -15 9 -15 20 0
13 -7 20 -20 20 -13 0 -20 -7 -20 -20 0 -11 -7 -20 -15 -20 -10 0 -15 -10 -15
-30 0 -23 -4 -30 -20 -30 -13 0 -20 -7 -20 -20 0 -11 -7 -20 -15 -20 -10 0
-15 -11 -15 -35 0 -24 5 -35 15 -35 8 0 15 -7 15 -15 0 -10 11 -15 35 -15 24
0 35 -5 35 -15 0 -10 11 -15 35 -15 28 0 35 -4 35 -20 0 -11 -7 -20 -15 -20
-8 0 -15 -7 -15 -15 0 -12 -14 -15 -70 -15 -62 0 -70 -2 -70 -19 0 -27 -60
-37 -100 -16 -36 18 -37 24 -9 59 11 14 16 26 11 26 -6 0 -12 -3 -15 -7 -2 -5
-2 -2 0 6 2 8 -2 11 -12 7 -10 -3 -13 -2 -10 5 4 6 13 8 21 5 9 -3 14 2 14 14
0 11 7 20 15 20 8 0 15 7 15 15 0 8 9 15 20 15 11 0 20 -7 20 -15 0 -8 -9 -15
-20 -15 -11 0 -20 -7 -20 -15 0 -8 9 -15 20 -15 11 0 20 7 20 15 0 8 7 15 15
15 8 0 15 -7 15 -15 0 -8 7 -15 15 -15 8 0 15 7 15 15 0 8 -4 15 -10 15 -5 0
-19 9 -30 20 -24 24 -27 80 -5 80 8 0 15 9 15 20 0 11 7 20 15 20 10 0 15 10
15 30 0 23 4 30 20 30 13 0 20 7 20 20 0 11 7 20 15 20 12 0 15 13 15 61 0 45
-3 58 -12 53 -9 -5 -9 -2 1 9 7 9 22 17 32 17 11 0 19 7 19 15 0 12 18 15 100
15 l100 0 0 -50z m-1430 -105 c0 -8 7 -15 15 -15 8 0 15 -9 15 -20 0 -11 7
-20 15 -20 10 0 15 -10 15 -30 0 -20 -5 -30 -15 -30 -10 0 -15 -11 -15 -35 0
-24 5 -35 15 -35 10 0 15 -11 15 -35 0 -28 4 -35 20 -35 17 0 20 -7 20 -50 0
-38 4 -50 15 -50 12 0 15 -18 15 -105 l0 -105 -35 0 c-33 0 -35 2 -35 35 0 24
-5 35 -15 35 -10 0 -15 11 -15 35 0 24 -5 35 -15 35 -12 0 -15 14 -15 70 0 64
-2 70 -20 70 -19 0 -21 5 -18 68 2 44 7 66 15 65 6 -1 17 5 25 14 11 14 11 16
-1 8 -10 -5 -12 -4 -7 3 4 7 14 12 22 12 8 0 14 7 14 15 0 8 -7 15 -15 15 -8
0 -15 7 -15 15 0 8 -9 15 -20 15 -11 0 -20 -7 -20 -15 0 -8 -6 -15 -14 -15 -9
0 -16 -12 -18 -32 -2 -22 -9 -34 -20 -36 -16 -3 -18 5 -18 67 0 64 2 71 20 71
11 0 20 7 20 15 0 10 11 15 35 15 24 0 35 -5 35 -15z m990 -100 c0 -8 7 -15
15 -15 8 0 15 -9 15 -20 0 -11 -7 -20 -15 -20 -8 0 -15 -7 -15 -15 0 -8 -9
-15 -20 -15 -11 0 -20 7 -20 15 0 8 -7 15 -15 15 -10 0 -15 11 -15 35 0 33 2
35 35 35 24 0 35 -5 35 -15z m-653 -576 c2 -17 0 -20 -6 -10 -5 7 -13 11 -19
7 -9 -5 -9 4 -3 32 3 14 25 -9 28 -29z m-30 -71 c-3 -7 -5 -2 -5 12 0 14 2 19
5 13 2 -7 2 -19 0 -25z"/>
<path d="M3220 5255 c0 -8 -7 -15 -15 -15 -8 0 -15 -9 -15 -20 0 -13 -7 -20
-20 -20 -11 0 -20 -7 -20 -15 0 -8 9 -15 20 -15 13 0 20 -7 20 -20 0 -11 7
-20 15 -20 8 0 15 -7 15 -15 0 -8 7 -15 15 -15 10 0 15 -11 15 -35 0 -33 2
-35 35 -35 33 0 35 2 35 35 0 24 -5 35 -15 35 -11 0 -15 12 -15 50 0 43 -3 50
-20 50 -16 0 -20 7 -20 35 0 24 -5 35 -15 35 -8 0 -15 -7 -15 -15z"/>
<path d="M4947 4811 c-4 -17 -3 -21 5 -13 5 5 8 16 6 23 -3 8 -7 3 -11 -10z"/>
<path d="M4150 4230 c0 -5 5 -10 11 -10 5 0 7 5 4 10 -3 6 -8 10 -11 10 -2 0
-4 -4 -4 -10z"/>
<path d="M7120 3850 c0 -11 7 -20 15 -20 8 0 15 9 15 20 0 11 -7 20 -15 20 -8
0 -15 -9 -15 -20z"/>
<path d="M2190 3235 c0 -8 9 -15 20 -15 11 0 20 7 20 15 0 8 -9 15 -20 15 -11
0 -20 -7 -20 -15z"/>
<path d="M2260 3205 c0 -8 9 -15 20 -15 11 0 20 7 20 15 0 8 -9 15 -20 15 -11
0 -20 -7 -20 -15z"/>
<path d="M2330 3170 c0 -11 7 -20 15 -20 8 0 15 9 15 20 0 11 -7 20 -15 20 -8
0 -15 -9 -15 -20z"/>
<path d="M3252 3068 c-3 -12 -14 -18 -33 -18 -22 0 -29 -5 -29 -20 0 -18 -7
-20 -55 -20 -42 0 -55 -3 -55 -15 0 -10 -10 -15 -27 -15 -36 0 -50 -30 -45
-93 4 -45 6 -48 30 -45 14 2 27 10 29 18 4 13 3 13 -6 0 -8 -11 -10 -6 -6 23
3 31 1 38 -10 33 -9 -3 -15 1 -15 10 0 9 5 12 11 8 8 -4 9 1 5 17 -7 23 -6 23
5 4 7 -11 15 -22 19 -25 4 -3 7 -16 7 -30 0 -53 3 -60 23 -60 18 0 20 7 20 55
0 42 3 55 15 55 8 0 15 7 15 15 0 10 11 15 35 15 24 0 35 -5 35 -15 0 -18 30
-20 31 -2 1 6 2 19 3 27 0 8 10 16 21 18 17 4 18 3 5 -14 -9 -11 -10 -15 -2
-10 7 4 12 2 12 -8 0 -8 -4 -18 -10 -21 -5 -3 -10 0 -10 7 0 20 -20 -13 -20
-34 0 -11 8 -18 20 -18 13 0 20 7 20 20 0 11 7 20 15 20 11 0 15 12 15 50 0
43 3 50 20 50 11 0 20 6 20 14 0 10 -16 15 -52 18 -42 2 -52 0 -56 -14z m-229
-133 c-3 -9 -8 -14 -10 -11 -3 3 -2 9 2 15 9 16 15 13 8 -4z"/>
<path d="M2175 3000 c-3 -5 -1 -10 4 -10 6 0 11 5 11 10 0 6 -2 10 -4 10 -3 0
-8 -4 -11 -10z"/>
<path d="M2770 2854 c0 -21 4 -25 20 -21 11 3 22 2 25 -3 6 -10 -24 -22 -36
-14 -5 3 -9 -6 -9 -20 0 -25 3 -26 55 -26 l55 0 0 35 c0 28 -4 35 -19 35 -10
0 -21 8 -23 18 -3 11 -16 18 -36 20 -28 2 -32 -1 -32 -24z"/>
<path d="M3600 2380 c0 -16 -7 -20 -35 -20 l-35 0 0 -65 c0 -51 3 -65 15 -65
8 0 15 -9 15 -20 0 -13 7 -20 20 -20 11 0 20 -7 20 -15 0 -10 10 -15 30 -15
20 0 30 -5 30 -15 0 -12 16 -15 85 -15 69 0 85 3 85 15 0 10 11 15 35 15 33 0
35 2 35 35 0 28 4 35 20 35 16 0 20 7 20 35 0 28 -4 35 -20 35 -11 0 -20 7
-20 15 0 8 -7 15 -15 15 -8 0 -15 7 -15 15 0 10 -11 15 -35 15 -28 0 -35 4
-35 20 0 19 -7 20 -100 20 -93 0 -100 -1 -100 -20z"/>
<path d="M4620 2315 c0 -8 9 -15 20 -15 11 0 20 7 20 15 0 8 -9 15 -20 15 -11
0 -20 -7 -20 -15z"/>
<path d="M4567 2149 c7 -7 15 -10 18 -7 3 3 -2 9 -12 12 -14 6 -15 5 -6 -5z"/>
<path d="M2897 1459 c4 -13 8 -18 11 -10 2 7 -1 18 -6 23 -8 8 -9 4 -5 -13z"/>
<path d="M3050 1460 c0 -11 7 -20 15 -20 8 0 15 9 15 20 0 11 -7 20 -15 20 -8
0 -15 -9 -15 -20z"/>
<path d="M1495 7130 c-3 -5 -1 -10 4 -10 6 0 11 5 11 10 0 6 -2 10 -4 10 -3 0
-8 -4 -11 -10z"/>
<path d="M1460 7095 c-10 -12 -10 -15 4 -15 9 0 16 7 16 15 0 8 -2 15 -4 15
-2 0 -9 -7 -16 -15z"/>
<path d="M2305 6999 c-4 -6 -4 -13 -1 -16 3 -4 6 -1 6 6 0 7 5 9 10 6 6 -3 10
-1 10 4 0 14 -17 14 -25 0z"/>
<path d="M4930 4640 c0 -11 7 -20 15 -20 8 0 15 9 15 20 0 11 -7 20 -15 20 -8
0 -15 -9 -15 -20z"/>
<path d="M5030 4605 c0 -10 11 -15 35 -15 24 0 35 5 35 15 0 10 -11 15 -35 15
-24 0 -35 -5 -35 -15z"/>
<path d="M5370 4295 c0 -11 7 -15 23 -13 12 2 22 8 22 13 0 6 -10 11 -22 13
-16 2 -23 -2 -23 -13z"/>
<path d="M5118 4293 c7 -3 16 -2 19 1 4 3 -2 6 -13 5 -11 0 -14 -3 -6 -6z"/>
<path d="M5800 3000 c0 -5 5 -10 11 -10 5 0 7 5 4 10 -3 6 -8 10 -11 10 -2 0
-4 -4 -4 -10z"/>
<path d="M3080 1320 c0 -13 7 -20 20 -20 13 0 20 7 20 20 0 13 -7 20 -20 20
-13 0 -20 -7 -20 -20z"/>
</g>
</svg>
