<?xml version="1.0" encoding="UTF-8" standalone="no"?>
<svg
   xmlns:dc="http://purl.org/dc/elements/1.1/"
   xmlns:cc="http://creativecommons.org/ns#"
   xmlns:rdf="http://www.w3.org/1999/02/22-rdf-syntax-ns#"
   xmlns:svg="http://www.w3.org/2000/svg"
   xmlns="http://www.w3.org/2000/svg"
   viewBox="0 0 43.439999 37.946667"
   height="37.946667"
   width="43.439999"
   xml:space="preserve"
   id="svg2"
   version="1.1"><metadata
     id="metadata8"><rdf:RDF><cc:Work
         rdf:about=""><dc:format>image/svg+xml</dc:format><dc:type
           rdf:resource="http://purl.org/dc/dcmitype/StillImage" /></cc:Work></rdf:RDF></metadata><defs
     id="defs6" /><g
     transform="matrix(1.3333333,0,0,-1.3333333,0,37.946667)"
     id="g10"><g
       transform="scale(0.1)"
       id="g12"><path
         id="path14"
         style="fill:#8f9398;fill-opacity:1;fill-rule:nonzero;stroke:none"
         d="m 120.309,56.1523 v -7.9492 h 0.039 V 20 c -4.582,-1.25 -7.993,-5.0391 -7.993,-9.707 0,-4.60941 3.411,-8.39847 7.993,-9.707062 V 0 h 20.437 v 48.2031 h 15.414 V 20.4492 c -5.844,-0.3515 -10.469,-4.707 -10.469,-10.1562 0,-5.42972 4.625,-9.785187 10.469,-10.078156 V 0 h 20.438 v 48.2031 h 15.32 V 20.4883 c -0.137,0 -0.312,0.0976 -0.508,0.0976 -6.133,0 -11.133,-4.5898 -11.133,-10.2929 0,-5.64456 5,-10.293 11.133,-10.293 0.196,0 0.371,0.15625 0.508,0.214844 V 0 h 20.469 v 48.2031 h 15.41 V 20.4492 c -5.781,-0.3515 -10.449,-4.707 -10.449,-10.1562 0,-5.42972 4.668,-9.785187 10.449,-10.078156 V 0 h 20.449 V 56.1523 H 120.309" /><path
         id="path16"
         style="fill:#8f9398;fill-opacity:1;fill-rule:nonzero;stroke:none"
         d="M 200.707,241.738 H 140.25 v 19.18 h 48.563 c 5.371,0 9.746,5.254 9.746,11.816 0,6.543 -4.375,11.836 -9.746,11.836 H 82.9727 c -5.3907,0 -9.7461,-5.293 -9.7461,-11.836 0,-6.562 4.3554,-11.816 9.7461,-11.816 h 29.4683 v -19.18 H 63.6133 c -11.5977,0 -20.9766,-2.558 -20.9766,-16.64 v -5.293 H 234.457 c 0,0 -27.012,21.933 -33.75,21.933" /><path
         id="path18"
         style="fill:#8f9398;fill-opacity:1;fill-rule:nonzero;stroke:none"
         d="m 42.6367,184.316 h -16.664 v 41.661 c 0,8.73 -5.8008,15.761 -12.9883,15.761 C 5.83984,241.738 0,234.707 0,225.977 v -56.348 c 0,-3.262 4.49609,-9.258 8.35938,-12.891 v -51.875 c 0,-5.9177 3.95702,-10.7028 8.76562,-10.7028 4.8867,0 8.8477,4.7851 8.8477,10.7028 v 49.063 h 16.664 v -30.821 c 0,-14.121 9.3789,-25.5659 20.9766,-25.5659 H 80.0156 L 113.027,69.082 c 3.684,-3.9843 8.536,-6.4453 13.887,-6.4453 h 117.328 c 11.602,0 21.016,11.4063 21.016,25.5078 V 213.438 H 42.6367 v -29.122" /><path
         id="path20"
         style="fill:#8f9398;fill-opacity:1;fill-rule:nonzero;stroke:none"
         d="M 298.656,198.438 V 73.9648 l 27.129,26.6212 v 71.211 l -27.129,26.641" /><path
         id="path22"
         style="fill:#8f9398;fill-opacity:1;fill-rule:nonzero;stroke:none"
         d="m 271.195,68.7305 h 21.602 V 203.672 H 271.195 V 68.7305" /></g></g></svg>