<?xml version="1.0" encoding="UTF-8" standalone="no"?>
<svg
   xmlns:dc="http://purl.org/dc/elements/1.1/"
   xmlns:cc="http://creativecommons.org/ns#"
   xmlns:rdf="http://www.w3.org/1999/02/22-rdf-syntax-ns#"
   xmlns:svg="http://www.w3.org/2000/svg"
   xmlns="http://www.w3.org/2000/svg"
   viewBox="0 0 38.32 44.946667"
   height="44.946667"
   width="38.32"
   xml:space="preserve"
   id="svg2"
   version="1.1"><metadata
     id="metadata8"><rdf:RDF><cc:Work
         rdf:about=""><dc:format>image/svg+xml</dc:format><dc:type
           rdf:resource="http://purl.org/dc/dcmitype/StillImage" /></cc:Work></rdf:RDF></metadata><defs
     id="defs6" /><g
     transform="matrix(1.3333333,0,0,-1.3333333,0,44.946667)"
     id="g10"><g
       transform="scale(0.1)"
       id="g12"><path
         id="path14"
         style="fill:#8f9398;fill-opacity:1;fill-rule:nonzero;stroke:none"
         d="M 251.371,145.422 H 234.984 V 131.66 h 16.653 c -0.489,-10.828 -2.59,-21.297 -6.067,-31.082 l -15.769,7.012 -5.625,-12.5705 15.945,-7.0781 C 232.66,73.293 221.898,60.5859 208.852,50.7344 l -9.825,15.0976 -11.609,-7.5 9.91,-15.2148 C 183.219,35.0586 167.094,30.0781 149.859,29.1211 v 16.457 h -13.8 V 29.1914 c -14.11,1.0039 -27.508,4.707 -39.6137,10.5547 L 105.105,55.3828 93.0078,62.0313 84.4297,46.5625 C 70.7656,55.5391 59.2852,67.4141 50.8438,81.3984 L 65.8047,89.3672 59.2422,101.496 44.5508,93.6133 C 39.4141,105.402 36.332,118.215 35.707,131.66 h 15.8985 v 13.762 h -15.586 c 0.8438,10.574 3.3008,20.723 7.0586,30.207 l 13.7539,-6.098 5.625,12.532 -13.4882,6.003 c 7.6367,13.782 18.2226,25.723 30.9531,34.973 l 7.6797,-11.726 11.6132,7.437 -7.6796,11.723 c 13.3988,7.343 28.4448,11.945 44.5238,13.082 v -15.672 h 13.8 v 15.765 c 13.711,-0.761 26.707,-4.113 38.543,-9.535 l -6.882,-12.394 12.109,-6.656 7.012,12.574 c 13.437,-8.328 24.961,-19.539 33.632,-32.758 l -13.449,-7.168 6.563,-12.082 13.672,7.301 c 5.625,-11.524 9.199,-24.16 10.312,-37.508 z m 9.199,92.152 c 3.125,-2.793 8,-2.523 10.813,0.582 l 14.062,15.586 c 2.821,3.125 2.547,7.949 -0.578,10.742 l -32.469,29.004 c -3.164,2.793 -7.988,2.524 -10.8,-0.582 l -14.121,-15.629 c -2.813,-3.082 -2.539,-7.976 0.586,-10.695 l 3.035,-2.723 -12.996,-12.957 c -17.11,11.012 -36.848,18.336 -58.059,20.86 v 16.949 h 5.852 c 3.074,0 5.761,1.738 7.097,4.289 h 10 c 4.563,0 8.36,3.75 8.36,8.324 v 27.516 c 0,4.555 -3.797,8.305 -8.36,8.305 h -77.887 c -4.597,0 -8.3472,-3.75 -8.3472,-8.305 v -27.516 c 0,-4.574 3.7502,-8.324 8.3472,-8.324 h 9.25 c 1.336,-2.551 4.02,-4.289 7.098,-4.289 h 5.141 v -17.016 c -20.367,-2.5 -39.3909,-9.511 -55.9651,-19.965 l -14.4687,14.379 3.125,2.793 c 3.082,2.813 3.3086,7.68 0.4961,10.743 l -14.2032,15.543 c -2.8125,3.105 -7.6836,3.304 -10.8086,0.511 L 2.48047,266.445 c -3.082033,-2.793 -3.351564,-7.613 -0.49219,-10.718 l 14.20312,-15.52 c 2.8125,-3.102 7.7227,-3.328 10.8047,-0.488 l 4.375,3.929 13.1797,-13.085 C 21.0117,206.039 6.5,172.863 6.5,136.367 6.5,61.1641 68.043,0 143.695,0 c 75.606,0 137.149,61.1641 137.149,136.367 0,35.91 -14.063,68.672 -36.973,93.078 l 12.188,12.102 4.511,-3.973" /><path
         id="path16"
         style="fill:#8f9398;fill-opacity:1;fill-rule:nonzero;stroke:none"
         d="m 158.52,136.367 c 0,-8.191 -6.649,-14.824 -14.825,-14.824 -8.215,0 -14.871,6.633 -14.871,14.824 0,8.203 6.656,14.856 14.871,14.856 8.176,0 14.825,-6.653 14.825,-14.856" /><path
         id="path18"
         style="fill:#8f9398;fill-opacity:1;fill-rule:nonzero;stroke:none"
         d="m 139.988,136.418 v 82.914 c 0,2.031 1.61,3.707 3.707,3.707 v 0 c 2.059,0 3.707,-1.676 3.707,-3.707 v 0 -82.914 c 0,-2.082 -1.648,-3.77 -3.707,-3.77 v 0 c -2.097,0 -3.707,1.688 -3.707,3.77 v 0" /></g></g></svg>