<?xml version="1.0" encoding="UTF-8" standalone="no"?>
<svg
   xmlns:dc="http://purl.org/dc/elements/1.1/"
   xmlns:cc="http://creativecommons.org/ns#"
   xmlns:rdf="http://www.w3.org/1999/02/22-rdf-syntax-ns#"
   xmlns:svg="http://www.w3.org/2000/svg"
   xmlns="http://www.w3.org/2000/svg"
   viewBox="0 0 38.693333 38.053333"
   height="38.053333"
   width="38.693333"
   xml:space="preserve"
   id="svg2"
   version="1.1"><metadata
     id="metadata8"><rdf:RDF><cc:Work
         rdf:about=""><dc:format>image/svg+xml</dc:format><dc:type
           rdf:resource="http://purl.org/dc/dcmitype/StillImage" /></cc:Work></rdf:RDF></metadata><defs
     id="defs6" /><g
     transform="matrix(1.3333333,0,0,-1.3333333,0,38.053333)"
     id="g10"><g
       transform="scale(0.1)"
       id="g12"><path
         id="path14"
         style="fill:#8f9398;fill-opacity:1;fill-rule:nonzero;stroke:none"
         d="m 144.887,124.656 c -10.157,0.102 -18.102,8.418 -18.063,18.164 0.141,9.922 8.496,17.832 18.52,17.832 10.062,-0.136 18.129,-8.164 18.011,-18.144 -0.097,-10 -8.3,-17.852 -18.468,-17.852 z m 4.761,67.344 -0.269,-22.988 c -1.309,0.312 -2.516,0.898 -3.91,0.898 -1.617,0 -3.141,-0.644 -4.668,-0.898 L 141.113,192 c -24.8,-2.168 -44.3864,-21.465 -46.0505,-45.992 l 23.0035,-0.219 c -0.039,-0.992 -0.531,-1.797 -0.531,-2.754 -0.055,-2.066 0.668,-3.769 0.985,-5.738 l -23.3637,0.23 c 2.289,-23.086 20.9767,-41.6207 44.6987,-44.0192 l 0.309,22.9652 c 1.535,-0.293 2.977,-0.938 4.637,-0.938 1.347,0 2.644,0.586 3.949,0.703 l -0.398,-22.8708 c 24.203,1.6016 43.656,19.8868 46.664,43.3598 l -23.496,0.117 c 0.449,1.933 1.21,3.617 1.21,5.605 0.059,0.996 -0.39,1.934 -0.585,2.832 l 23.222,-0.136 C 194.215,169.91 174.664,189.754 149.648,192 Z M 144.082,59.5781 c -46.6797,0.4492 -84.0976,37.8711 -83.3789,83.8669 0.3985,45.957 38.7149,82.871 85.4449,82.344 46.719,-0.449 84.043,-37.93 83.477,-83.965 -0.547,-45.8162 -38.77,-82.5974 -85.543,-82.2459 z M 248.922,242.605 C 221.93,269.832 185.582,285.008 146.953,285.398 66.9063,286.102 1.08203,222.703 0.015625,144.133 -0.527344,106.008 14.2109,69.9102 41.2031,42.7617 68.4766,15.4609 104.684,0.261719 143.402,0.0078125 182.125,-0.382813 218.688,14.1094 246.5,40.8477 c 27.715,26.7421 43.125,62.4453 43.672,100.4683 0.449,38.125 -14.063,74.102 -41.25,101.289" /></g></g></svg>